<?xml version="1.0" standalone="no"?>
<!DOCTYPE svg PUBLIC "-//W3C//DTD SVG 1.1//EN" "http://www.w3.org/Graphics/SVG/1.1/DTD/svg11.dtd" >
<!--
2013-9-30: Created.
-->
<svg>
<metadata>
Created by iconfont
</metadata>
<defs>

<font id="iconfont" horiz-adv-x="1024" >
  <font-face
    font-family="iconfont"
    font-weight="500"
    font-stretch="normal"
    units-per-em="1024"
    ascent="896"
    descent="-128"
  />
    <missing-glyph />
    
    <glyph glyph-name="searchclose" unicode="&#58938;" d="M517.08411984 416.88524517L301.90637831 632.0624622400001a26.85237631 26.85237631 0 1 1-37.98667221-37.95153335l215.17669262-215.19504873L263.91970607 163.72135589000004a26.85237631 26.85237631 0 1 1 37.96936504-37.96884057l215.19504878 215.17669264 215.19504866-215.17669264a26.85237631 26.85237631 0 1 1 37.9688406 37.95100889l-215.17669262 215.2123559 215.17669262 215.1772171a26.85237631 26.85237631 0 1 1-37.9688406 37.96936505L517.10195147 416.88524517z"  horiz-adv-x="1024" />

    
    <glyph glyph-name="ziyuan1" unicode="&#58937;" d="M341.331627 896L0 640.00128l341.331627-255.99872V554.668373h245.758771a262.825353 262.825353 0 0 0 261.118694-204.798976A255.99872 255.99872 0 0 0 597.330347 42.670933H85.332907a85.332907 85.332907 0 0 1 0-170.665813h511.99744a426.664533 426.664533 0 0 1 426.664533 468.477658A439.464469 439.464469 0 0 1 579.410436 725.334187H341.331627V896z"  horiz-adv-x="1026" />

    
    <glyph glyph-name="queren" unicode="&#58929;" d="M512-96C246.896-96 32 118.89599999999996 32 384 32 649.104 246.896 864 512 864 777.104 864 992 649.104 992 384 992 118.89599999999996 777.104-96 512-96ZM792.832 536.832C780.704 548.96 761.024 548.96 748.896 536.832L447.536 235.47199999999998 276.032 406.976C264.16 418.864 244.896 418.864 233.024 406.976 221.136 395.104 221.136 375.84000000000003 233.024 363.96799999999996L419.664 177.32799999999997C421.12 174.41600000000005 422.688 171.53599999999994 425.12 169.10400000000004 437.232 156.976 456.912 156.976 469.04 169.10400000000004L792.832 492.896C804.96 505.024 804.96 524.704 792.832 536.832Z"  horiz-adv-x="1024" />

    
    <glyph glyph-name="tip" unicode="&#58934;" d="M512 896C230.4 896 0 665.6 0 384s230.4-512 512-512 512 230.4 512 512S793.6 896 512 896zM512 18.285713999999984c-40.228571 0-73.142857 32.914286-73.142857 73.142857s32.914286 73.142857 73.142857 73.142857 73.142857-32.914286 73.142857-73.142857S552.228571 18.285713999999984 512 18.285713999999984zM585.142857 384c0-40.228571-32.914286-73.142857-73.142857-73.142857s-73.142857 32.914286-73.142857 73.142857L438.857143 676.571429c0 40.228571 32.914286 73.142857 73.142857 73.142857s73.142857-32.914286 73.142857-73.142857L585.142857 384z"  horiz-adv-x="1024" />

    
    <glyph glyph-name="yiwen" unicode="&#58935;" d="M512 896a512 512 0 1 1 0-1024A512 512 0 0 1 512 896z m3.648-804.544a54.848 54.848 0 0 0-54.848 54.08 55.616 55.616 0 0 0 54.848 54.848 54.848 54.848 0 0 0 54.144-54.848 54.144 54.144 0 0 0-54.144-54.08z m92.16 310.08a150.656 150.656 0 0 1-54.848-90.688v-36.544a38.016 38.016 0 0 0-73.152 0V302.08a207.744 207.744 0 0 0 76.8 137.536 189.44 189.44 0 0 1 68.736 119.936 95.104 95.104 0 0 1-103.104 102.4c-73.152 0-114.112-47.552-116.288-136.768a36.544 36.544 0 0 0-35.84-32.96 35.84 35.84 0 0 0-35.136 32.96v5.12A176.256 176.256 0 0 0 522.24 720.448a154.304 154.304 0 0 0 168.256-160.896 224.576 224.576 0 0 0-82.688-158.016z"  horiz-adv-x="1024" />

    
    <glyph glyph-name="cuowu" unicode="&#58936;" d="M88.713269 372.992472a423.20126 423.20126 0 1 1 846.40252 0 423.20126 423.20126 0 1 1-846.40252 0ZM511.431001 895.999716A511.971415 511.971415 0 1 1 1023.971273 383.772315 511.971415 511.971415 0 0 1 511.431001 895.999716z m254.933321-773.332823a40.957713 40.957713 0 0 0-57.881212 0l-196.568581 193.866509-196.426366-196.113494a41.611899 41.611899 0 0 0-58.84827 58.677612l195.942838 195.686852-196.426366 193.411424A40.957713 40.957713 0 1 0 314.037577 626.077008l196.653909-193.411423 196.767681 196.540138a41.52657 41.52657 0 1 0 58.762941-58.677613l-196.511695-196.255709 196.653909-193.866509a40.900827 40.900827 0 0 0 0-57.881213z m0 0"  horiz-adv-x="1024" />

    
    <glyph glyph-name="goumai_xpx_dengchu_xpx" unicode="&#58926;" d="M686.080 721.92v-81.92c20.48-15.36 40.96-35.84 61.44-51.2v153.6c0 35.84-25.6 61.44-61.44 61.44h-501.76c-46.080 0-71.68-25.6-71.68-61.44v-757.76c0-10.24 5.12-15.36 20.48-15.36h20.48c15.36 0 20.48 5.12 20.48 20.48v732.16c0 20.48 5.12 25.6 25.6 25.6h465.92c10.24 0 20.48-10.24 20.48-25.6zM686.080 721.92v-81.92c20.48-15.36 40.96-35.84 61.44-51.2v153.6c0 35.84-25.6 61.44-61.44 61.44h-501.76c-46.080 0-71.68-25.6-71.68-61.44v-757.76c0-10.24 5.12-15.36 20.48-15.36h20.48c15.36 0 20.48 5.12 20.48 20.48v732.16c0 20.48 5.12 25.6 25.6 25.6h465.92c10.24 0 20.48-10.24 20.48-25.6zM686.080 71.68v-81.92c0-15.36 5.12-25.6 25.6-25.6h15.36c10.24 0 20.48 5.12 20.48 15.36v138.24c-20.48-10.24-40.96-30.72-61.44-46.080zM578.56 455.68v122.88c0 15.36 5.12 30.72 20.48 35.84s30.72 5.12 46.080-5.12c25.6-20.48 51.2-46.080 76.8-66.56 56.32-51.2 117.76-102.4 174.080-153.6 25.6-20.48 25.6-40.96 0-61.44l-245.76-215.040c-15.36-10.24-30.72-20.48-46.080-10.24-20.48 10.24-20.48 20.48-20.48 40.96v117.76h-199.68c-35.84 0-51.2 15.36-51.2 46.080v107.52c0 30.72 15.36 46.080 46.080 46.080h184.32c0-5.12 5.12-5.12 15.36-5.12z"  horiz-adv-x="1024" />

    
    <glyph glyph-name="1" unicode="&#58994;" d="M901.110647 813.779394 122.88833 813.779394c-22.460548 0-40.667212-18.207687-40.667212-40.667212l0-778.223341c0-22.460548 18.206664-40.667212 40.667212-40.667212l778.222317 0c22.460548 0 40.667212 18.206664 40.667212 40.667212L941.777859 773.112182C941.777859 795.571706 923.571195 813.779394 901.110647 813.779394z"  horiz-adv-x="1024" />

    
    <glyph glyph-name="shenglve" unicode="&#59201;" d="M512-62.7c-246.7 0-447.5 200.8-447.5 447.5S265.3 832.3 512 832.3s447.5-200.8 447.5-447.5S758.7-62.7 512-62.7z m0 836.1c-214.3 0-388.6-174.3-388.6-388.6S297.7-3.7 512-3.7s388.6 174.3 388.6 388.6S726.3 773.4 512 773.4zM327.2 384.8m-58.9 0a58.9 58.9 0 1 1 117.8 0 58.9 58.9 0 1 1-117.8 0ZM511.5 384.8m-58.9 0a58.9 58.9 0 1 1 117.8 0 58.9 58.9 0 1 1-117.8 0ZM694.8 384.8m-58.9 0a58.9 58.9 0 1 1 117.8 0 58.9 58.9 0 1 1-117.8 0Z"  horiz-adv-x="1024" />

    
    <glyph glyph-name="shenglve1" unicode="&#58925;" d="M155.732 384m-91.138 0a91.138 91.138 0 1 1 182.276 0 91.138 91.138 0 1 1-182.276 0ZM520.285 384m-91.138 0a91.138 91.138 0 1 1 182.276 0 91.138 91.138 0 1 1-182.276 0ZM868.268 384m-91.138 0a91.138 91.138 0 1 1 182.276 0 91.138 91.138 0 1 1-182.276 0Z"  horiz-adv-x="1024" />

    
    <glyph glyph-name="dayin" unicode="&#58988;" d="M896 554.666667h-85.333333V725.333333c0 72.533333-55.466667 128-128 128H341.333333C268.8 853.333333 213.333333 797.866667 213.333333 725.333333v-170.666666H128c-46.933333 0-85.333333-38.4-85.333333-85.333334v-256c0-46.933333 38.4-85.333333 85.333333-85.333333h42.666667v-170.666667c0-25.6 17.066667-42.666667 42.666666-42.666666h597.333334c25.6 0 42.666667 17.066667 42.666666 42.666666v170.666667h42.666667c46.933333 0 85.333333 38.4 85.333333 85.333333v256c0 46.933333-38.4 85.333333-85.333333 85.333334z m-128-426.666667v-128H256v341.333333h512v-213.333333z m-128 298.666667c-25.6 0-42.666667 17.066667-42.666667 42.666666s17.066667 42.666667 42.666667 42.666667h128c25.6 0 42.666667-17.066667 42.666667-42.666667s-17.066667-42.666667-42.666667-42.666666h-128zM298.666667 725.333333c0 25.6 17.066667 42.666667 42.666666 42.666667h341.333334c25.6 0 42.666667-17.066667 42.666666-42.666667v-170.666666H298.666667V725.333333zM384 85.333333h256c12.8 0 21.333333 8.533333 21.333333 21.333334s-8.533333 21.333333-21.333333 21.333333H384c-12.8 0-21.333333-8.533333-21.333333-21.333333s8.533333-21.333333 21.333333-21.333334zM384 213.333333h256c12.8 0 21.333333 8.533333 21.333333 21.333334s-8.533333 21.333333-21.333333 21.333333H384c-12.8 0-21.333333-8.533333-21.333333-21.333333s8.533333-21.333333 21.333333-21.333334z"  horiz-adv-x="1024" />

    
    <glyph glyph-name="forward" unicode="&#58924;" d="M752.91357235 553.97287506C429.0200968 544.13438419 157.29651358 327.29922369999997 65.3842963 31.238320980000026c157.2864 154.43841581 406.09665581 255.9302163 687.52927605 261.10836939V553.97287506zM939.19762963 353.83725827c16.05227457 16.18172839 16.05227457 42.59030914 0 58.77203754L586.8243121 766.53605925c-16.05227457 16.18172839-29.25656494 10.74466765-29.25656493-12.03920592V11.172977779999997c0-22.78387358 13.07483653-28.22093431 29.25656493-12.03920593l352.37331753 354.70348642z"  horiz-adv-x="1024" />

    
    <glyph glyph-name="youjian" unicode="&#59935;" d="M512.3776 307.168l0.128 0.1344 0.2176-0.1344 0.3776 0.6336L960 691.2H65.0944L512 307.8016l0.3776-0.6336zM65.0944 591.4752v-415.0144L312.128 384 65.0944 591.4752zM960 176.46079999999995V591.4752L713.0304 384 960 176.46079999999995z m-448.2496 36.0256L365.6896 338.01599999999996 64 76.79999999999995h895.5008L657.728 338.01599999999996l-145.9776-125.5296z"  horiz-adv-x="1024" />

    
    <glyph glyph-name="xia-copy" unicode="&#58921;" d="M783.529 575.645l-271.529-271.528-271.529 271.528c-24.994 24.994-65.516 24.994-90.51 0-24.994-24.993-24.994-65.516 0-90.51l316.785-316.783c24.994-24.993 65.516-24.993 90.51 0l316.785 316.783c24.994 24.994 24.994 65.517 0 90.511s-65.516 24.994-90.51-0.001z"  horiz-adv-x="1024" />

    
    <glyph glyph-name="moshi3" unicode="&#58912;" d="M541.696 628.384l417.792 0 0-59.648-417.792 0 0 59.648ZM541.696 509.024l417.792 0 0-59.648-417.792 0 0 59.648ZM541.696 389.664l417.792 0 0-59.648-417.792 0 0 59.648ZM541.696 270.304l417.792 0 0-59.648-417.792 0 0 59.648ZM541.696 150.944l417.792 0 0-59.648-417.792 0 0 59.648ZM541.696 31.584l417.792 0 0-59.648-417.792 0 0 59.648ZM64.256 628.384l417.792 0 0-298.432-417.792 0 0 298.432ZM64.256 270.24l417.792 0 0-298.432-417.792 0 0 298.432Z"  horiz-adv-x="1024" />

    
    <glyph glyph-name="moshi" unicode="&#59010;" d="M882.78857422 430.34857177H141.21142578V754.78857422h741.57714844v-324.44000244z m0-92.69714354v-324.44000245H141.21142578V337.65142822999996h741.57714844z"  horiz-adv-x="1024" />

    
    <glyph glyph-name="zhiding6" unicode="&#59187;" d="M-77.98581729 988.2271428500001h1315.57592308l-1315.57592308-1315.57592308zM98.52679988 338.15991742000006l96.47556757 96.47556754-12.87510344 15.89215643-81.3902972-81.39029723-46.3433544 46.41351908 179.61996619 179.61996621 46.34335439-46.41351909-80.33783552-80.37291852 12.87510207-15.89215642 98.72081751 98.75589914 13.6819895-13.68198948-100.75557485-100.68541154c3.99935136-5.96394403 7.96361972-11.4016579 11.43674093-16.87445343l71.91815031 71.9181503 109.4208343-109.38575265 35.95907515 35.99415682 14.38363064-14.38362924-222.0341339-222.06921554-14.38363063 14.41871087 35.99415819 35.95907653-109.42083567 109.42083431 60.30600116 60.27091814c-3.75377712 5.71836977-7.71804546 11.15608366-11.43674094 16.83937178l-94.5109735-94.47589187-13.64690786 13.64690784z m186.07505874-88.33653826l115.06904078 115.10412242-16.34822328 16.38330492-115.1041238-115.10412245 16.3833063-16.38330489z m-27.53938996 27.53938856l115.06904079 115.1041238-15.61150053 15.64658216-115.06904075-115.10412244 15.61150049-15.64658352z m-27.04824006 27.01315981l115.06904079 115.13920405-15.61150188 15.6115019-115.0690408-115.06904078 15.61150189-15.64658353z m-26.80266718 26.83774883l115.10412243 115.06904079-15.61150053 15.64658214-115.10412242-115.06904078 15.61150052-15.64658215z m47.64138897 213.29870977l-20.59314753 20.62823055-36.9764552-36.97645521 20.59314891-20.59314752 36.97645382 36.97645382z m-53.32467711-53.32467847l-20.59314891 20.59314888-39.18662071-39.18662074 20.55806587-20.59314888 39.22170375 39.18662074zM142.2039205 435.8984379l-20.59314891 20.55806588-36.9764538-36.9413722 20.59314888-20.59314752 36.97645383 36.97645384z m235.89153299 300.89852526l125.52348468 125.52348331 17.36560195-17.36560196-54.79812263-54.83320425c8.17411232-9.68263813 15.85707476-19.33019599 22.80331582-29.25840837l49.85155726 49.85155726 117.5949466-117.59494661-17.61117618-17.61117758-100.96606607 100.96606746-75.14569727-75.14569729 101.45721458-101.45721457-17.36560196-17.36560195-118.08609512 118.05101213 42.16859344 42.20367644a406.32000957 406.32000957 0 0 1-22.80331583 29.25840836l-52.62303595-52.62303736-17.36560332 17.40068498z m244.87253273-80.12734429c31.74923254 3.96426834 60.51649241 5.43771388 86.5473552 3.7186941l0.24557286-26.06594443c-24.31184299 2.49082419-53.3246771 2.24524993-87.56473247-1.22787128l0.77180441 23.57512161z m-117.87560251 57.78009396l17.64625784 17.61117618 44.13318748-44.13318609c25.57479591-27.04824145 40.20400078-54.58763002 43.15089047-82.37259424 2.24524993-26.52201129-6.17443664-57.78009396-25.25905837-93.77425214l-24.83807317 5.47279554c18.87412912 34.24005537 27.04824145 62.76174235 24.83807317 85.81063242-3.22754558 23.08397172-15.15543502 45.39614041-35.50300829 67.25224085l-44.1331875 44.13318748z m26.8026658-251.046968l-28.03053708-28.03053847-20.83872316 12.91018508c9.47214689 8.41968659 18.59347322 16.62887917 26.80266719 24.80299149 5.96394403 5.96394403 5.47279552 12.91018509-1.47344554 19.85642618L338.66325849 662.59847988l-38.20432511-38.23940675-17.36560193 17.40068498 86.30178094 86.30178093 17.40068357-17.36560334-29.7846385-29.74955686 174.14717066-174.1471693c14.62920486-14.62920486 14.87477913-29.25840835 0.73672141-43.43154636z"  horiz-adv-x="1024" />

    
    <glyph glyph-name="fuzhi" unicode="&#58979;" d="M917.665476 895.853735C976.317669 895.853735 1023.853735 848.317669 1023.853735 789.738609v-576.137123c0-58.652193-47.536066-106.188259-106.188259-106.188259h-129.224968v-143.997715c0-50.461363-40.954149-91.415512-91.415512-91.415512H91.415512c-50.461363 0-91.415512 40.954149-91.415512 91.415512V569.098129c0 50.461363 40.954149 91.415512 91.415512 91.415512h145.094701V789.738609c0 58.652193 47.536066 106.115126 106.188259 106.115126h574.967004zM697.024996-59.4018c12.651907 0 22.890444 10.238537 22.890445 22.817312V569.098129a22.817312 22.817312 0 0 1-22.890445 22.890444H91.415512a22.890444 22.890444 0 0 1-22.890444-22.890444v-605.536352c0-12.651907 10.238537-22.890444 22.890444-22.890444h605.609484z m259.400657 273.003286V789.738609a37.590059 37.590059 0 0 1-37.590058 37.590058H342.698472a37.590059 37.590059 0 0 1-37.590059-37.590058v-129.298101h393.086702c50.461363 0 91.415512-40.954149 91.415512-91.415512v-393.086701h129.224968c20.769604 0 37.590059 16.820454 37.590058 37.663191zM546.664762 403.380089a34.2991 34.2991 0 1 0-0.731324-68.598201H242.7996a34.2991 34.2991 0 1 0 0.731324 68.598201h303.206971z m0-205.721469a34.2991 34.2991 0 1 0-0.731324-68.525068H242.7996a34.2991 34.2991 0 1 0 0.731324 68.525068h303.206971z"  horiz-adv-x="1024" />

    
    <glyph glyph-name="bokeyuan" unicode="&#59057;" d="M874.030545 746.030545c-199.959273 199.959273-524.101818 199.959273-724.06109 0-199.959273-199.959273-199.959273-524.101818 0-724.06109 199.959273-199.959273 524.101818-199.959273 724.06109 0 199.959273 199.959273 199.959273 524.101818 0 724.06109zM379.019636 153.506909a50.222545 50.222545 0 1 0-71.074909 70.935273 50.222545 50.222545 0 0 0 71.074909-70.935273z m219.229091-1.489454a41.332364 41.332364 0 0 0-81.733818 12.288h-0.046545a6.981818 6.981818 0 0 1-0.046546-0.325819v0.372364c0.325818 2.792727 2.187636 22.109091-3.165091 47.988364a185.856 185.856 0 0 1-51.805091 95.232 183.575273 183.575273 0 0 1-94.72 51.525818 167.144727 167.144727 0 0 1-45.288727 3.118545 41.239273 41.239273 0 0 0-37.748364 69.678546 41.192727 41.192727 0 0 0 22.528 11.543272v0.232728c4.747636 0.791273 118.551273 17.547636 213.690182-77.591273 94.952727-94.952727 79.127273-209.221818 78.336-214.109091z m186.88-8.09891a41.332364 41.332364 0 0 0-70.050909-22.807272 42.123636 42.123636 0 0 0-12.427636 35.979636c0.093091 0.372364 5.445818 39.982545-5.399273 94.906182-14.196364 71.866182-48.314182 135.354182-101.282909 188.695273-53.341091 53.015273-116.829091 87.086545-188.741818 101.282909-54.923636 10.845091-94.487273 5.538909-94.952727 5.492363h0.232727-0.046546a42.589091 42.589091 0 0 0-47.662545 35.095273 41.425455 41.425455 0 0 0 34.350545 47.336727c2.048 0.325818 51.060364 7.819636 118.690909-4.654545a439.202909 439.202909 0 0 0 113.338182-37.282909 454.144 454.144 0 0 0 122.274909-87.738182l0.977455-1.024 1.024-0.930909a454.283636 454.283636 0 0 0 87.738182-122.368c17.501091-35.84 30.021818-73.914182 37.329454-113.291636 12.427636-67.630545 4.980364-116.642909 4.608-118.69091z"  horiz-adv-x="1024" />

    
    <glyph glyph-name="biji" unicode="&#58964;" d="M685.611-6.508H26.034V895.948H685.61a52.016 52.016 0 0 0 52.016-52.016v-798.425a52.016 52.016 0 0 0-52.016-52.015zM546.712 895.948h86.78v-902.456h-86.78zM26.034 600.776h520.678v-312.407H26.034z m607.458 0h104.135v-312.407H633.492zM199.593-93.288l-52.068 34.712-52.067-34.712v86.78h104.135zM859.119 774.508h69.423v-69.423H859.12zM928.542 896H893.57a34.538 34.538 0 0 1-19.265-5.884 34.434 34.434 0 0 1-15.186-28.568v-87.04h69.423V896z m34.973 0zM928.542 705.085h69.424v-659.526h-69.424zM928.542 774.508h69.424v-69.423h-69.424zM997.966 774.508v87.04A34.434 34.434 0 0 1 963.515 896h-34.973v-121.492h69.424zM997.966 45.56H859.12l69.423-121.492zM911.186-110.644a17.356 17.356 0 1 1 34.712 0V-41.22h-34.712v-69.424zM859.119 705.085h69.423v-659.526H859.12z"  horiz-adv-x="1024" />

    
    <glyph glyph-name="wenzhangguanli" unicode="&#58909;" d="M202.994 50.071V726.96c0 32.508 26.368 58.875 58.875 58.875h500.262c32.507 0 58.875-26.367 58.875-58.875v-443.914h58.875V726.959c0 65.016-52.735 117.75-117.75 117.75H261.869c-65.015 0-117.75-52.734-117.75-117.75V50.07c0-65.016 52.735-117.75 117.75-117.75h235.502v58.875H261.87c-32.507 0-58.875 26.367-58.875 58.875zM718.064 491.457c0 16.254-13.364 29.257-29.257 29.257H335.193c-16.254 0-29.257-13.364-29.257-29.257 0-16.254 13.364-29.257 29.257-29.257h353.253c16.254 0 29.618 13.003 29.618 29.257zM327.969 373.706c-12.28 0-22.033-9.753-22.033-22.033 0-12.281 9.752-22.033 22.033-22.033h117.75c12.282 0 22.034 9.752 22.034 22.033 0 12.28-9.752 22.033-22.033 22.033H327.969zM688.446 668.083H335.193c-16.254 0-29.257-13.364-29.257-29.257 0-16.254 13.364-29.257 29.257-29.257h353.253c16.254 0 29.257 13.364 29.257 29.257 0.361 16.254-13.003 29.257-29.257 29.257zM533.853 373.706h-14.81c-12.28 0-22.033-9.753-22.033-22.033 0-12.281 9.753-22.033 22.033-22.033h14.81c12.28 0 22.033 9.752 22.033 22.033 0.36 12.28-9.753 22.033-22.033 22.033zM879.881 147.956c-26.006 43.344-25.645 44.067-25.645 44.067s-89.938-25.284-106.553 61.042H695.67s-14.448-86.326-106.193-60.681c-26.367-44.067-27.45-45.511-27.45-45.511s71.878-50.207 0-118.474l27.811-45.872s79.464 34.314 105.47-59.237h52.736s16.615 85.966 105.831 60.682c25.284 43.344 25.645 43.705 25.645 43.705s-67.544 58.153 0.361 120.28z m-159.288-120.28c-33.592 0-60.682 27.09-60.682 60.682s27.09 60.682 60.682 60.682c33.591 0 60.681-27.09 60.681-60.682 0-33.591-27.09-60.681-60.681-60.681z"  horiz-adv-x="1024" />

    
    <glyph glyph-name="xiewenzhang" unicode="&#58949;" d="M60.19565 477.440392a31.99997 31.99997 0 0 1 31.99997 31.99997v52.479951a31.99997 31.99997 0 0 1-63.99994 0v-52.479951a31.99997 31.99997 0 0 1 31.99997-31.99997zM993.954775 377.920486a31.99997 31.99997 0 0 1-14.719987 19.519981l-111.039895 63.99994a31.99997 31.99997 0 0 1-43.51996-11.519989L796.19496 400.640464V768.00012a95.99991 95.99991 0 0 1-95.99991 95.99991h-63.99994a31.99997 31.99997 0 0 1-31.99997 31.99997H220.1955a31.99997 31.99997 0 0 1-31.99997-31.99997H124.19559a95.99991 95.99991 0 0 1-95.99991-95.99991v-69.439935a31.99997 31.99997 0 0 1 63.99994 0V768.00012a31.99997 31.99997 0 0 0 31.99997 31.99997h63.99994v-15.999985a63.99994 63.99994 0 0 1 63.99994-63.99994h319.9997a63.99994 63.99994 0 0 1 63.99994 63.99994V800.00009h63.99994a31.99997 31.99997 0 0 0 31.99997-31.99997v-478.079552l-155.519854-269.759747A29.759972 29.759972 0 0 1 572.19517 0.00084l9.919991-63.99994H124.19559a31.99997 31.99997 0 0 0-31.99997 31.99997V365.440497a31.99997 31.99997 0 0 1-63.99994 0V-31.99913a95.99991 95.99991 0 0 1 95.99991-95.99991h495.999535a29.439972 29.439972 0 0 1 11.519989 2.239998l95.99991 36.159966a31.99997 31.99997 0 0 1 16.319985 13.759987l191.99982 332.799688 55.999947 95.99991a30.079972 30.079972 0 0 1 1.919999 24.959977zM252.19547 784.000105V832.00006h319.9997v-47.999955z m611.839426-393.919631l55.359949-31.99997-23.999978-41.599961-49.279954 28.479974-6.079994 3.519996z m-170.879839-423.999602l-47.359956-18.239983-7.999992 50.239953 170.23984 295.039723 27.839974-15.999985 27.519974-15.999985zM636.19511 332.800528V608.00027a31.99997 31.99997 0 0 1-31.99997 31.99997H220.1955a31.99997 31.99997 0 0 1-31.99997-31.99997v-543.99949a31.99997 31.99997 0 0 1 31.99997-31.99997h215.359798a63.99994 63.99994 0 0 1 55.359948 31.99997l136.639872 236.799778a63.99994 63.99994 0 0 1 8.639992 31.99997z"  horiz-adv-x="1024" />

    
    <glyph glyph-name="xiangceguanli_line" unicode="&#59944;" d="M562 144.1c0-1.2-0.2-2.4-0.4-3.5 0.1-1.1 0.4-2.2 0.4-3.5v7zM761.1 455.6l73.9-44.3v-57.8c0-17.7 16.3-32 34-32s34 14.3 34 32V681.7c0 35.2-35.7 72.3-71.3 72.3H188.5c-35.6 0-58.5-36.9-58.5-72.3v-515.4c0-35.2 22.9-49.4 58.5-49.4h341.1c16.5 0 30 8.1 31.8 23.5-1.8 15.2-15.3 21.5-31.8 21.5H233.1l88.8 128.8c11.9 16.9 37.9 23.3 55.8 13.9l73.3-37.8c45-23.9 105.3-10.5 138.2 30l116 146.5c13.2 16.4 37.9 23 55.9 12.3zM540.1 336c-13.6-15.7-42.1-21.4-60.8-12.1L406 360.4c-45.7 22.7-105.5 8.6-136-32.2l-69.1-92.5 0.1 450.1 643.3 0.3-0.1-215.2-47.3 26.4c-44.7 24.8-105.2 14.3-138.4-24.2L540.1 336zM349.2 617.1c-53.3 0-96.5-43.2-96.5-96.5s43.2-96.5 96.5-96.5 96.5 43.2 96.5 96.5-43.2 96.5-96.5 96.5z m0-128.7c-17.8 0-32.2 14.4-32.2 32.2 0 17.8 14.4 32.2 32.2 32.2 17.8 0 32.2-14.4 32.2-32.2 0-17.8-14.4-32.2-32.2-32.2zM925.2 31.2L795.6 160.8c-2.5 2.5-3.3 6.2-2.2 9.7 10.3 32.4 2.4 69.8-23.2 95.3-25.2 25.2-61.3 33-93.3 23.9-7.1-2-9.5-11-4.3-16.3l46.2-46.2c3.8-3.8 3.8-9.8 0-13.6l-31-31c-3.8-3.8-9.9-3.8-13.6 0L628 228.8c-5.2 5.2-14.2 2.9-16.3-4.3-9.1-32-1.3-68.1 23.9-93.3 25.6-25.6 62.9-33.5 95.3-23.2 3.4 1.1 7.1 0.4 9.7-2.2l129.6-129.6c5.8-5.8 15.3-5.8 20.5 0l34.4 34.4c5.9 5.2 5.9 14.7 0.1 20.6z"  horiz-adv-x="1024" />

    
    <glyph glyph-name="pinglunguanli" unicode="&#58970;" d="M197.326268-89.644707V63.529809h-43.165121C75.23064 63.529809 11.099603 127.660845 11.099603 206.591353V691.273997C11.099603 770.204504 75.23064 834.335541 154.161147 834.335541h675.842466c78.930507 0 143.061544-64.131037 143.061544-143.061544v-308.815608h-73.99735V691.273997c0 38.108635-30.955558 69.064194-69.064194 69.064194H154.161147c-38.108635 0-69.064194-30.955558-69.064194-69.064194v-484.682644c0-38.108635 30.955558-69.064194 69.064194-69.064194h117.162471v-94.223293L423.634831 137.527159h112.475972v-73.99735h-91.510056L197.326268-89.644707zM273.543538 443.999518m-61.664458 0a61.664459 61.664459 0 1 1 123.328917 0 61.664459 61.664459 0 1 1-123.328917 0ZM504.291943 443.999518m-61.664459 0a61.664459 61.664459 0 1 1 123.328917 0 61.664459 61.664459 0 1 1-123.328917 0ZM738.616885 443.999518m-61.664458 0a61.664459 61.664459 0 1 1 123.328917 0 61.664459 61.664459 0 1 1-123.328917 0ZM988.357943 161.206311l-30.955558 3.45321c-1.356618 3.699868-2.959894 7.153077-4.439841 10.852944l18.745995 23.432495c13.196194 13.566181 12.949536 35.395399-0.369987 48.838251L945.932795 273.188968c-6.166446 6.166446-15.046128 9.742984-24.789112 9.742984h-0.246658c-9.12634 0-17.389377-3.329881-23.185836-8.756353L873.538721 254.68963c-3.45321 1.603276-7.153077 3.083223-10.852945 4.439841l-3.329881 29.845598c-0.246658 18.992653-15.662772 34.285439-34.655425 34.285439h-36.012044c-7.523064 0-15.046128-2.466578-21.089245-7.153077l-0.246658-0.246658c-6.78309-5.67313-7.893051-15.292786-2.959894-22.445863 5.179815-7.523064 15.662772-9.249669 23.185837-4.069854l0.246657 0.246658c0.246658 0.246658 0.616645 0.246658 0.739974 0.246658h36.012044c0.986631 0 1.356618-1.603276 1.356618-2.34325l6.043117-53.894737 10.606287-3.083223c8.756353-2.466578 17.019391-6.043117 25.03577-10.2363l9.742984-5.179814 42.425148 33.915452 0.369987 0.369987c0.616645 0.616645 1.603276 0.616645 1.973262 0.246658l25.405757-25.405757c0.616645-0.616645 0.246658-1.726605-0.739973-2.713236L913.250632 179.458991l5.426473-9.742985c4.316512-7.893051 7.769722-16.279417 10.2363-25.03577l3.083223-10.606287 54.018065-6.043117h0.739974c0.739974 0 1.356618-0.616645 1.356618-1.356618V90.66217c0-0.986631-1.10996-1.356618-2.343249-1.356618l-53.894737-6.043117-3.083223-10.606287c-2.466578-8.879682-6.043117-17.266048-10.2363-25.03577l-5.426473-9.742984 33.915453-42.425148 0.616644-0.616644c0.616645-0.616645 0.616645-1.356618 0-1.726605l-25.405757-25.405757c-0.739974-0.739974-1.973263 0-2.713236 0.739973l-42.17849 33.668795-9.742984-5.179815c-7.893051-4.316512-16.402746-7.769722-25.03577-10.2363l-10.606287-3.083223-6.043117-54.018066v-0.739973c0-0.739974-0.616645-1.356618-1.356618-1.356618h-36.012044c-0.986631 0-1.356618 1.603276-1.356618 2.343249l-6.043117 53.648079-10.606287 3.083223c-8.879682 2.466578-17.266048 6.043117-25.03577 10.2363l-9.742985 5.179815-42.178489-33.915452-0.616645-0.616645c-0.616645-0.616645-1.356618-0.616645-1.726605 0l-25.282428 25.899073c-0.246658 0.246658-0.369987 0.616645-0.369987 0.986631s0.616645 1.10996 1.109961 1.726605l33.668794 42.178489-5.426472 9.742985c-4.316512 7.893051-7.769722 16.279417-10.2363 25.03577l-3.083223 10.606287-54.018066 6.043117h-0.739974c-0.739974 0-1.356618 0.616645-1.356618 1.356618v36.012044c0 1.356618 2.096592 1.356618 2.34325 1.356618l53.894737 6.043117 3.083223 10.606287c2.466578 8.756353 6.043117 17.266048 10.2363 25.03577l5.179814 9.866313-33.915452 42.17849-0.616645 0.616645c-0.616645 0.616645-0.616645 1.356618 0 1.726605l25.405757 25.405756c0.246658 0.246658 0.616645 0.369987 0.986632 0.369987s0.986631-0.369987 1.726604-1.10996l42.17849-33.668794 9.742985 5.179814c7.893051 4.316512 16.279417 7.769722 25.03577 10.2363l10.606287 3.083223 2.466578 22.075876v0.369987c0.369987 8.386366-5.67313 15.90943-13.936168 17.266049-9.12634 1.603276-17.759364-4.439841-19.36264-13.566181l-0.246657-0.739974c-3.699868-1.356618-7.399735-2.959894-10.606287-4.439841l-23.432495 18.745996c-6.536433 6.413104-15.046128 9.866313-24.172467 9.866313h-0.246658c-9.12634 0-18.006022-3.699868-24.419126-10.112971l-25.405757-25.529086c-6.536433-6.536433-10.112971-15.292786-10.112971-24.542455 0-8.879682 3.45321-17.636035 9.12634-23.432494l19.36264-24.172468c-1.603276-3.45321-3.083223-7.153077-4.439841-10.852945l-29.845598-3.32988c-18.992653-0.246658-34.285439-15.662772-34.285439-34.655426V90.66217c0-9.249669 3.699868-18.25268 10.2363-24.789112 6.166446-6.166446 14.306154-9.742984 23.062508-9.866313l30.832229-3.45321c1.356618-3.699868 2.959894-7.153077 4.439841-10.852945l-18.745996-23.432494c-6.413104-6.536433-9.866313-15.046128-9.866313-24.172468s3.699868-18.25268 10.2363-24.542454l25.529086-25.529086c6.536433-6.536433 15.539444-10.2363 24.789112-10.2363 8.879682 0 17.019391 3.329881 23.185837 9.249668l24.172468 19.36264c3.45321-1.603276 7.153077-3.083223 10.852944-4.439841l3.329881-29.845598c0.246658-18.992653 15.662772-34.285439 34.655426-34.285439h36.012044c9.249669 0 18.25268 3.699868 24.789112 10.2363 6.166446 6.166446 9.742984 14.306154 9.866314 22.81585l3.453209 30.955558c3.699868 1.356618 7.153077 2.959894 10.852945 4.439841l23.432494-18.745995c13.566181-13.196194 35.395399-12.949536 48.838251 0.369987l25.529086 25.529086c6.536433 6.536433 10.2363 15.539444 10.2363 24.789112 0 8.879682-3.329881 17.019391-9.249668 23.185836l-19.36264 24.172468c1.603276 3.45321 3.083223 7.153077 4.439841 10.852945l29.845598 3.329881c18.992653 0.246658 34.285439 15.662772 34.285439 34.655425V126.427556c0.123329 18.869324-15.169457 34.532097-33.175479 34.778755zM727.147296 108.544863c0-43.905095 35.888715-79.793809 79.79381-79.793809s79.793809 35.888715 79.793809 79.793809-35.888715 79.793809-79.793809 79.79381c-44.151752 0-79.793809-35.888715-79.79381-79.79381z m79.79381 46.248344c25.529086 0 46.248344-20.719258 46.248344-46.248344S832.470191 62.296519 806.941106 62.296519s-46.248344 20.719258-46.248344 46.248344 20.719258 46.248344 46.248344 46.248344z"  horiz-adv-x="1024" />

    
    <glyph glyph-name="guanli" unicode="&#59097;" d="M150.976 755.2h742.4V512H970.176V832H74.176v-809.28l76.8 40.192V755.2z m0 76.8L74.176 755.2h76.8V832z m742.4 0L970.176 755.2h-76.8V832zM74.176-17.535999999999945V-64l41.152 21.568-41.152 24.96zM970.176 755.2L893.376 832v-76.8H970.176zM893.376 512H970.176V832H74.176v-896l76.8 126.912V755.2h742.4V512zM74.176 755.2L150.976 832v-76.8H74.176zM394.176 192v-90.944L74.176-64l76.8 126.912L394.176 192z m-278.848-234.432L74.176-64v46.464l41.152-24.96zM522.176 604.544m-96 0a96 96 0 1 1 192 0 96 96 0 1 1-192 0ZM447.232 384h518.72v-64H447.232zM447.232 224h518.72v-64H447.232zM447.232 64h518.72v-64H447.232z"  horiz-adv-x="1088" />

    
    <glyph glyph-name="wenjianguanli" unicode="&#58927;" d="M64 512v-526.592c0-9.728 8.576-18.24 19.008-18.24h941.44a18.816 18.816 0 0 1 19.008 18.24V512H64zM0 576h1107.456v-590.592c0-45.184-37.248-82.24-83.072-82.24H83.008A82.88 82.88 0 0 0 0-14.592V576zM1033.408 756.16h-125.44a80 80 0 0 1-7.552-0.32H521.728V822.528C521.728 863.104 488.448 896 447.488 896H74.24C33.152 896 0 862.976 0 822.528V609.92h1107.456V683.072a73.92 73.92 0 0 1-74.048 73.088zM735.936 231.68c5.12-7.04 11.712-12.032 19.968-15.04a38.4 38.4 0 0 0 4.928-3.328 18.56 18.56 0 0 0 6.208-9.472 35.968 35.968 0 0 0-0.448-11.968 72.064 72.064 0 0 0-11.136-27.2 25.408 25.408 0 0 0-9.024-8.32 19.904 19.904 0 0 0-8.64-2.432 24.32 24.32 0 0 0-8.256 1.664 86.016 86.016 0 0 1-10.24 2.24 47.936 47.936 0 0 1-12.608 0.448 60.992 60.992 0 0 1-12.8-2.688 24.96 24.96 0 0 1-10.88-7.04 40.64 40.64 0 0 1-11.52-23.488 46.4 46.4 0 0 1 3.712-25.152 15.68 15.68 0 0 0-1.28-16.512 30.72 30.72 0 0 0-7.808-6.784c-3.584-2.368-7.488-4.48-11.712-6.4a72.96 72.96 0 0 0-25.792-6.208 10.496 10.496 0 0 0-6.976 2.88 15.616 15.616 0 0 0-4.48 6.208h-0.448a51.008 51.008 0 0 1-15.488 22.08 38.976 38.976 0 0 1-50.688 0 50.048 50.048 0 0 1-15.808-21.696 14.08 14.08 0 0 0-6.144-7.168 18.432 18.432 0 0 0-9.088-2.304 47.68 47.68 0 0 0-12.992 2.048 121.152 121.152 0 0 0-14.4 5.12 68.736 68.736 0 0 0-12.992 7.296 35.84 35.84 0 0 0-8.64 8.192 12.608 12.608 0 0 0-2.24 6.848 25.024 25.024 0 0 0 3.072 10.88 41.28 41.28 0 0 1 3.52 21.696 37.504 37.504 0 0 1-10.496 22.464 26.752 26.752 0 0 1-14.016 8.064 56.96 56.96 0 0 1-15.68 1.408c-5.76-0.256-11.648-1.344-17.664-3.264a16.768 16.768 0 0 0-11.52 0.832 18.112 18.112 0 0 0-8.448 7.616 84.736 84.736 0 0 0-11.776 28.032 34.56 34.56 0 0 0-0.832 12.608c0.832 6.016 3.584 9.856 8.32 11.52a58.24 58.24 0 0 1 22.208 16.32 37.632 37.632 0 0 1 9.856 25.344 35.904 35.904 0 0 1-9.856 25.152 60.992 60.992 0 0 1-22.272 15.68c-2.496 0.832-4.48 2.816-6.144 6.016A20.8 20.8 0 0 0 384 313.536c0 3.584 0.576 7.552 1.664 11.968a82.56 82.56 0 0 0 4.288 12.8c1.792 4.096 3.84 7.872 6.208 11.328a25.088 25.088 0 0 0 7.616 7.68 9.472 9.472 0 0 0 6.4 1.6 36.672 36.672 0 0 0 6.784-1.664 49.792 49.792 0 0 1 25.728-3.072c8.96 1.28 16.832 5.12 23.68 11.776a29.312 29.312 0 0 1 7.232 12.16 66.816 66.816 0 0 1 2.88 27.008 162.816 162.816 0 0 1-1.024 8.256 44.544 44.544 0 0 0-1.472 5.76 8.96 8.96 0 0 0 0.64 5.76 23.616 23.616 0 0 0 8.832 10.112c4.224 2.88 8.832 5.312 13.824 7.232a89.6 89.6 0 0 0 14.4 4.288A58.24 58.24 0 0 0 522.816 448c3.52 0 6.4-1.152 8.384-3.52a20.928 20.928 0 0 0 4.352-7.232 49.344 49.344 0 0 1 14.848-19.584 37.12 37.12 0 0 1 24.32-8.448c9.6 0 18.048 2.688 25.472 8.064a43.008 43.008 0 0 1 15.68 20.416 27.008 27.008 0 0 0 5.12 6.784C623.36 446.848 625.728 448 628.224 448c3.84 0 8-0.576 12.544-1.664 4.48-1.088 8.96-2.56 13.44-4.48a52.48 52.48 0 0 0 12.16-7.488 39.68 39.68 0 0 0 8.768-9.856 9.472 9.472 0 0 0 1.28-7.232 25.28 25.28 0 0 0-1.664-5.568 43.84 43.84 0 0 1-3.328-25.152 41.024 41.024 0 0 1 11.968-23.104c6.592-6.592 14.72-10.24 24.32-10.88 9.6-0.768 18.56 0.832 26.752 4.672a12.608 12.608 0 0 0 8.064 1.664c3.136-0.256 5.76-1.536 8-3.712a48.64 48.64 0 0 0 10.88-17.536c3.2-7.808 5.312-15.744 6.4-23.68 0.576-4.736-0.192-8.32-2.24-10.944a15.36 15.36 0 0 0-6.4-5.12 48.32 48.32 0 0 1-21.76-15.936 40.192 40.192 0 0 1-9.088-25.792c0-9.344 2.56-17.536 7.616-24.512zM639.104 319.936a89.6 89.6 0 0 1-63.616 26.24 87.04 87.04 0 0 1-34.816-7.04 90.24 90.24 0 0 1-47.552-47.68c-4.672-10.88-7.04-22.464-7.04-34.816 0-12.416 2.368-24 7.04-34.88 4.672-10.88 11.072-20.416 19.2-28.672a88.512 88.512 0 0 1 98.176-19.392c11.008 4.672 20.544 11.136 28.608 19.392a92.8 92.8 0 0 1 19.2 28.672c4.672 10.88 7.04 22.464 7.04 34.88A90.24 90.24 0 0 1 639.104 320z"  horiz-adv-x="1152" />

    
    <glyph glyph-name="xuanxiang" unicode="&#58910;" d="M901.632 0H122.368c-30.72 0-55.808 25.088-55.808 55.808v1.536c0 30.72 25.088 55.808 55.808 55.808h779.776c30.72 0 55.808-25.088 55.808-55.808v-1.536c-0.512-30.72-25.6-55.808-56.32-55.808z m0 327.68H122.368c-30.72 0-55.808 25.088-55.808 55.808v1.536c0 30.72 25.088 55.808 55.808 55.808h779.776c30.72 0 55.808-25.088 55.808-55.808v-1.536c-0.512-30.72-25.6-55.808-56.32-55.808z m0 327.68H122.368c-30.72 0-55.808 25.088-55.808 55.808v1.536c0 30.72 25.088 55.808 55.808 55.808h779.776c30.72 0 55.808-25.088 55.808-55.808v-1.536c-0.512-30.72-25.6-55.808-56.32-55.808z"  horiz-adv-x="1024" />

    
    <glyph glyph-name="lianjieguanli" unicode="&#58917;" d="M287.232 337.408c0-29.696-0.512-58.368 0-88.064 0-9.216-2.048-12.8-12.288-12.8-27.648 1.024-22.016-3.072-22.016 22.528-0.512 16.384-0.512 32.256 0 48.64 0 7.68-1.536 11.264-10.24 11.264-15.36-0.512-31.232-0.512-47.104 0-8.192 0.512-10.752-3.072-10.752-10.752 0.512-19.968-0.512-39.424 0.512-59.392 1.024-15.872-10.24-11.264-17.92-11.264-7.168 0-16.896-4.608-16.384 10.752 0.512 59.392 0.512 119.296 0 178.688 0 12.8 6.656 12.8 14.336 11.264 7.168-1.536 20.48 7.168 19.968-10.752-0.512-19.968 0.512-39.424-0.512-59.392-0.512-9.216 2.56-11.776 11.776-11.776 13.824 0.512 28.672 1.024 42.496 0 10.752-0.512 14.848 2.048 13.824 13.312-1.024 18.944 0 37.888-0.512 56.832 0 8.192 1.024 12.288 10.752 12.288 23.04 0 23.04 1.024 23.04-22.528 1.024-26.112 1.024-52.224 1.024-78.848zM537.088 318.976c0-23.552-0.512-47.104 0-70.656 0.512-16.384-10.752-10.24-17.92-10.752-7.68-0.512-16.384-3.584-16.384 11.264 1.024 46.592 0 93.184 0.512 139.776 0 12.288-2.56 17.92-15.36 15.36-4.096-0.512-8.704 0.512-12.8 0-15.36-3.072-18.944 4.096-18.944 18.432 0.512 12.8 3.072 16.896 16.384 16.384 32.256-1.024 65.024-1.024 97.28 0 16.896 0.512 11.776-10.752 12.288-18.432 0.512-8.704 3.072-16.896-12.288-16.896-33.28 0.512-33.28-0.512-33.28-34.304 0.512-16.384 0.512-33.28 0.512-50.176zM361.984 321.024c0 23.552-0.512 47.104 0 70.656 0 9.216-1.536 13.824-12.288 12.8-5.12-0.512-10.752 0.512-15.36-0.512-15.36-2.56-19.456 3.584-18.944 18.432 0.512 12.8 3.072 16.896 16.384 16.384 32.256-1.024 65.024-1.024 97.28 0 16.896 0.512 11.776-10.24 12.288-18.432 0.512-8.704 3.072-16.896-12.288-16.896-33.28 0.512-33.792-0.512-33.792-34.304 0-39.424-1.024-79.872 0.512-119.296 0.512-16.384-9.216-12.8-17.92-12.8-9.216-0.512-17.408-1.536-16.384 13.312 1.536 23.552 0.512 46.592 0.512 70.656zM901.12 436.736c-15.36-46.592-30.72-92.16-46.08-138.24-7.68-23.04-15.36-46.592-23.04-70.144-8.192-24.064-8.192-24.064-36.352-21.504 9.728 29.184 18.944 57.344 28.672 86.016 13.312 40.96 27.648 82.432 40.96 123.392 7.168 25.088 7.68 25.088 35.84 20.48zM957.44 437.76c-9.216-27.648-17.92-54.272-26.624-80.896-15.36-46.08-30.72-92.16-46.592-138.24-3.584-10.752-20.992-17.92-29.696-12.288-5.632 4.096-1.024 8.192 0.512 12.288 17.408 53.248 35.328 106.496 52.736 159.232 4.608 14.336 10.752 28.672 13.824 43.008 3.584 14.848 10.752 19.968 25.088 17.408 3.072-0.512 6.656-0.512 10.752-0.512zM783.36 359.424c-0.512-12.288-9.728-22.016-20.48-21.504-10.752 0.512-19.456 10.752-19.456 22.528s9.728 22.016 20.992 21.504c10.752 0 18.944-10.24 18.944-22.528z m0-103.936c-0.512-12.288-9.728-22.016-20.48-21.504-10.752 0.512-19.456 10.752-19.456 22.528s9.728 22.016 20.992 21.504c10.24 0 18.944-10.24 18.944-22.528zM664.064 438.272h-20.48c-6.656 0-13.312-0.512-20.992 0.512-13.312 2.048-15.872-4.096-15.872-16.384 0.512-55.808 0.512-111.616 0-167.936-0.512-13.312 2.048-17.92 16.384-17.92 14.336 0.512 19.456 4.608 17.92 18.432-1.024 10.24 0 19.968 0 30.208 0 23.552 0 23.552 22.528 24.576 35.328 1.536 57.856 29.696 56.832 70.656 0.512 37.376-19.456 57.344-56.32 57.856z m14.336-89.088c-8.192-10.24-20.48-9.216-31.744-8.704-5.12 0-5.12 4.096-5.12 7.68 0 16.384 0.512 33.28 0 49.664-0.512 12.8 8.192 7.68 13.312 8.704 12.8 0.512 23.04-3.584 28.16-15.872 5.12-13.824 5.632-28.672-4.608-41.472zM319.488 705.536h64v-64H319.488V705.536z m-128 0h64v-64H191.488V705.536zM97.792 577.024h832.512v-64H97.792V577.024z m349.696 128.512H512v-64H447.488V705.536zM895.488 0.512H128.512V770.048h766.976v-295.936h61.44V770.048c0 33.792-27.648 61.44-61.44 61.44H128.512c-33.792 0-61.44-27.648-61.44-61.44V0c0-33.792 27.648-61.44 61.44-61.44h766.976c33.792 0 61.44 27.648 61.44 61.44v168.96h-61.44v-168.448z"  horiz-adv-x="1024" />

    
    <glyph glyph-name="shezhi" unicode="&#59125;" d="M881 384c0 52.4 32.9 96.8 79 114.5-11 43.2-28 83.9-50.2 121.3C864.6 599.7 810 607.9 773 645c-37 37-45.2 91.7-25.1 136.8C710.4 804 669.7 821 626.5 832c-17.8-46.1-62.2-79-114.5-79-52.4 0-96.8 32.9-114.5 79-43.2-11-83.9-28-121.3-50.2 20.1-45.2 11.9-99.8-25.1-136.8-37-37-91.7-45.2-136.8-25.2C92 582.4 75 541.7 64 498.5c46.1-17.8 79-62.2 79-114.5 0-52.4-32.9-96.8-79-114.5 11-43.2 28-83.9 50.2-121.3C159.4 168.3 214 160.1 251 123c37-37 45.2-91.7 25.1-136.8C313.6-36 354.3-53 397.5-64c17.8 46.1 62.2 79 114.5 79 52.4 0 96.8-32.9 114.5-79 43.2 11 83.9 28 121.3 50.2-20.1 45.2-11.9 99.8 25.1 136.8 37 37 91.7 45.2 136.8 25.2C932 185.6 949 226.3 960 269.5c-46.1 17.7-79 62.1-79 114.5zM512 261c-67.9 0-123 55.1-123 123s55.1 123 123 123 123-55.1 123-123-55.1-123-123-123z"  horiz-adv-x="1024" />

    
    <glyph glyph-name="rijiguanli" unicode="&#59016;" d="M960 412.224v-346.688c0-54.08-19.2-72.128-76.352-72.128-224.64 0-449.28 0.32-673.92-0.512-21.312 0-28.16 4.8-26.432 24.704 2.048 23.936-0.448 47.872 0.832 71.808 0.704 14.336-4.8 17.472-18.816 16.832-22.144-1.024-44.352 0-66.624-0.32-22.272-0.256-32.896 11.328-34.112 30.72-0.96 15.936 0 31.936-0.384 47.872-0.64 22.272 12.032 31.936 34.496 32.192 22.4 0.32 44.416 0.832 66.624 0 14.528-0.64 18.752 3.52 18.88 17.28 0 38.784 0.96 38.784-41.6 38.784h-35.84c-31.104 0.448-41.792 10.048-42.496 38.272-0.256 11.968 0 23.936 0 35.84 0.384 30.464 7.936 37.312 41.6 37.504 19.712 0 39.36 0.768 59.008 0 13.824-0.64 19.2 2.56 19.264 16.832 0.32 39.232 1.152 39.232-40.96 39.232-14.528 0-29.12-0.512-43.584 0-31.552 1.536-35.904 11.2-35.2 73.6 0.384 28.672 8.064 37.12 35.84 37.76 21.312 0.512 42.752 1.152 64-0.256 16.448-1.088 21.504 4.8 19.52 19.2-0.96 6.336-0.96 12.8 0 19.072 2.368 15.104-4.352 19.392-19.968 18.496-21.248-1.28-42.688-0.512-64 0-22.656 0.32-34.56 11.648-35.52 32.64-0.64 15.04 0 30.208-0.256 45.376-0.512 22.144 12.224 32 34.432 32.576a840.32 840.32 0 0 0 64 0c16-0.96 22.656 2.56 21.568 19.136-1.664 24.64 0.64 49.472-0.832 74.112-0.96 15.872 4.48 19.904 21.248 19.84 126.336-0.64 252.8-0.32 379.328-0.32h299.776c58.048 0 76.352-17.28 76.416-71.808v-347.648z m-596.928-1.92c0 113.216-0.512 226.368 0.448 339.712 0 18.816-3.072 27.52-25.6 25.408a605.952 605.952 0 0 0-66.688-0.384c-15.808 0.32-32.384 2.752-27.712-20.672 3.072-15.552-12.096-40.96 25.6-36.48 23.232 2.88 34.432-9.536 33.472-31.552-0.64-15.168 0-30.336 0-45.44-0.64-24.768-9.216-34.752-35.392-32.512-31.808 2.56-22.272-17.152-23.872-32-1.664-16.64 0.896-26.496 23.808-24.96 27.968 1.792 34.944-6.144 35.392-31.744 0.256-14.336 0-28.672 0-43.008-0.448-28.736-7.488-37.44-37.312-35.84-30.72 1.728-20.16-17.792-21.76-31.36-1.728-15.68-1.088-27.264 23.04-25.6 29.056 1.92 35.84-6.08 35.84-33.472v-45.44c0-21.376-10.24-34.56-34.048-31.808-32.896 3.84-23.232-17.28-25.28-33.024-2.56-19.136 5.12-25.408 25.152-23.424 23.168 2.24 35.264-8.192 34.368-30.784-0.64-15.168 0-30.336 0-45.44-0.64-25.664-9.28-34.816-37.248-33.92-18.176 0.64-24.832-4.352-22.016-20.992 0.96-6.4 0.96-12.8 0-19.2-1.792-13.952 4.736-17.664 19.008-17.152 24.704 1.344 49.536 1.344 74.24 0 20.864-1.536 27.264 3.904 27.072 24.32-1.152 112.192-0.512 224.576-0.512 336.96v-0.192z"  horiz-adv-x="1024" />

    
    <glyph glyph-name="meihaorijiguanli" unicode="&#59076;" d="M731.720704 676.571136c20.18816 0 36.57216-16.384 36.57216-36.571136s-16.384-36.571136-36.57216-36.571136H439.149568c-20.187136 0-36.571136 16.384-36.571136 36.571136s16.384 36.571136 36.571136 36.571136h292.571136z m-512 0c20.18816 0 36.57216-16.384 36.57216-36.571136s-16.384-36.571136-36.57216-36.571136H73.435136C53.248 603.428864 36.864 619.812864 36.864 640s16.384 36.571136 36.571136 36.571136h146.285568z m512-219.42784c20.18816 0 36.57216-16.384 36.57216-36.57216 0-20.187136-16.384-36.571136-36.57216-36.571136H439.149568c-20.187136 0-36.571136 16.384-36.571136 36.571136 0 20.18816 16.384 36.57216 36.571136 36.57216h292.571136zM110.00832 310.85568h73.142272V530.285568H110.00832v-219.428864z m109.713408-73.142272c20.18816 0 36.57216-16.384 36.57216-36.571136 0-20.18816-16.384-36.57216-36.57216-36.57216H73.435136C53.248 164.571136 36.864 180.955136 36.864 201.14432c0 20.187136 16.384 36.571136 36.571136 36.571136h146.285568z m512 0c20.18816 0 36.57216-16.384 36.57216-36.571136 0-20.18816-16.384-36.57216-36.57216-36.57216H439.149568c-20.187136 0-36.571136 16.384-36.571136 36.57216 0 20.187136 16.384 36.571136 36.571136 36.571136h292.571136zM914.578432 896c40.448 0 73.142272-32.768 73.142272-73.143296V-54.85568c0-40.448-32.694272-73.143296-73.142272-73.143296H183.149568c-40.374272 0-73.142272 32.695296-73.142272 73.143296V91.428864h73.142272v-146.285568h731.428864V822.85568H183.149568v-73.142272H110.00832V822.85568C110.007296 863.232 142.775296 896 183.149568 896h731.428864z"  horiz-adv-x="1024" />

    
    <glyph glyph-name="suibi" unicode="&#58911;" d="M760.9-63.6H197.5c-55.3 0.1-96.7 38.1-96.8 93.4v703c0.1 55.3 41.5 97.8 96.8 97.9h431c17.1 0 30.9-11.5 30.9-28.6s-13.8-27.5-30.9-27.5h-431c-21.2 0-40.7-20.6-40.7-41.8v-703c0-21.2 19.5-38.5 40.7-38.5h563.3c21.2 0 41.8 17.3 41.8 38.5V436c0 17.1 10.4 30.8 27.5 30.8s29.7-13.8 29.7-30.8v-406.3c0-55.2-43.7-93.2-98.9-93.3z m0 0M730.3 125.5h-101c-17.1 0-29.7-11.3-29.7-29.5s12.7-27.3 29.7-27.3h101c17.1 0 28.6 9.1 28.6 27.3 0.1 18.2-11.5 29.5-28.6 29.5zM497.3 125.5H147.5c-17.1 0-30.9-10.2-30.9-28.4s13.8-28.4 30.9-28.4h349.9c17.1 0 30.9 10.2 30.9 28.4-0.1 18.2-13.8 28.4-31 28.4zM906 775.8l-40.3 40.3c-24.7 24.7-66.9 22.5-94.3-4.8L404.1 443.8l-74.6-204.2 204.2 74.5 367.5 367.5c12.3 12.1 20 28.1 21.7 45.2 2 18-4.2 36-16.9 49zM499.8 367.4L432.9 343l24.3 66.9L729.4 682l42-42.9-271.6-271.7z m357.8 357.8l-42.5-42.5-42 42.9 42 42.1c3.2 3.2 6.4 4 7.8 4l38.7-38.7c-0.4-3-1.8-5.7-4-7.8z"  horiz-adv-x="1024" />

    
    <glyph glyph-name="huodongsuibi" unicode="&#58915;" d="M338.1 355.1c0.3 0.4 0.2 1.1 0.7 1.6l442 442.1c13.1 13 31 20.2 50.5 20.2 22.1 0 44.2-9.4 60.5-25.9l41.7-41.9c16.4-16.3 25.8-38.4 25.8-60.5 0-19.5-7.2-37.4-20.3-50.5l-442.1-442c-1.4-1.4-3.2-2.1-5.1-2.1-0.1 0-0.3 0.3-0.6 0.3l-165.3-45c-9.8-2.7-20.3 0-27.5 7.2-7 7.3-9.8 17.7-7.2 27.5l45.4 166.6c0.2 0.9 0.9 1.7 1.5 2.4z m557.7 328.5c3.1 3.2 4.8 7.5 4.8 11.9-0.1 6-2.6 11.7-6.9 15.9l-41.9 41.8c-7.7 8-21 8.9-27.9 2.1l-43.2-43.2 71.1-72.4 44 43.9zM416.7 348.1l71.9-71.7L807 594.9l-71.3 72.4-319-319.2z m-58.2-129.3L443 242l-61.4 61.5-23.1-84.7z m498 239.4c0 16.9 13.8 30.5 30.5 30.5s30.4-13.6 30.5-30.4v-416.8c0-52.8-42.8-95.6-95.6-95.6H160.3c-52.8 0-95.6 42.8-95.6 95.6V723.4c0 52.8 42.9 95.6 95.6 95.6h453.5c16.9 0 30.5-13.7 30.5-30.5 0-16.9-13.7-30.5-30.5-30.5h-449c-21.6-0.1-39.1-17.6-39.1-39.2v-672.6c0-21.7 17.6-39.2 39.1-39.2h652.5c21.6 0.1 39.1 17.6 39.1 39.2l0.1 412zM903.4 680.5c3.6 3.7 5.6 8.7 5.6 13.9-0.1 7-3 13.6-8 18.5l-48.8 48.7c-9 9.3-24.5 10.4-32.5 2.4l-50.3-50.3 82.9-84.4 51.1 51.2z"  horiz-adv-x="1024" />

    
    <glyph glyph-name="hudong" unicode="&#58940;" d="M265.924 504.366c20.549 0 38.68-18.131 38.68-38.68 0-21.757-18.131-38.68-38.68-38.68-21.757 0-38.68 16.922-38.68 38.68 0 20.549 16.922 38.68 38.68 38.68zM811.069 747.324c-82.195 72.525-197.026 117.248-322.735 117.248-126.918 0-241.749-44.724-323.944-117.248s-132.962-171.642-132.962-281.638c0-41.097 7.252-79.777 20.549-117.248 13.296-38.68 33.845-74.942 59.229-107.578 6.044-8.461 6.044-36.262 1.209-70.107-6.044-37.471-14.505-83.404-20.549-117.248l2.417 1.209c66.481 26.592 163.181 65.272 175.268 60.437 32.636-14.505 68.899-26.592 107.578-35.054 36.262-8.461 73.734-12.087 111.205-12.087 125.71 0 240.541 44.724 322.735 117.248 82.195 71.316 132.962 171.642 132.962 280.429 0 109.996-50.767 209.113-132.962 281.638zM676.898 504.366c21.757 0 38.68-18.131 38.68-38.68 0-21.757-16.922-38.68-38.68-38.68s-38.68 16.922-38.68 38.68c0 20.549 16.922 38.68 38.68 38.68zM475.038 504.366c21.757 0 38.68-18.131 38.68-38.68 0-21.757-16.922-38.68-38.68-38.68s-38.68 16.922-38.68 38.68c0 20.549 16.922 38.68 38.68 38.68zM265.924 504.366c20.549 0 38.68-18.131 38.68-38.68 0-21.757-18.131-38.68-38.68-38.68-21.757 0-38.68 16.922-38.68 38.68 0 20.549 16.922 38.68 38.68 38.68zM357.789-50.449c-7.252 3.626-10.879 13.296-7.252 20.549 4.835 8.461 13.296 10.879 21.757 7.252 32.636-15.714 68.899-29.010 107.578-37.471 36.262-8.461 74.942-13.296 114.831-13.296 37.471 0 74.942 4.835 111.205 12.087 38.68 8.461 74.942 20.549 107.578 35.054 12.087 6.044 108.787-32.636 175.268-59.229l2.417-1.209c-6.044 33.845-14.505 79.777-20.549 116.040-4.835 33.845-4.835 62.855 1.209 71.316 25.384 32.636 45.932 68.899 59.229 106.37s20.549 77.36 20.549 118.457c0 13.296-1.209 26.592-2.417 39.889s-3.626 26.592-6.044 38.68c-2.417 8.461 2.417 16.922 10.879 19.34s16.922-3.626 19.34-12.087c3.626-13.296 6.044-27.801 7.252-42.306s2.417-29.010 2.417-43.515c0-44.724-7.252-88.239-21.757-128.127-15.714-42.306-37.471-80.986-65.272-116.040 0-1.209 2.417-20.549 6.044-47.141 7.252-48.35 19.34-112.413 25.384-143.841 1.209-2.417 1.209-6.044 0-8.461-3.626-8.461-12.087-12.087-20.549-8.461-15.714 6.044-22.966 8.461-30.219 12.087l-151.093 60.437c-33.845-15.714-72.525-29.010-112.413-37.471-38.68-8.461-78.569-13.296-118.457-13.296-41.097 0-82.195 4.835-122.083 14.505-39.889 8.461-78.569 21.757-114.831 39.889zM488.334 896c134.171 0 255.046-48.35 343.284-125.71 89.447-77.36 143.841-184.938 143.841-304.604 0-118.457-54.394-226.036-143.841-304.604-88.239-77.36-209.113-124.501-343.284-124.501-39.889 0-79.777 4.835-118.457 12.087-39.889 9.67-78.569 21.757-112.413 37.471l-151.093-60.437c-7.252-2.417-14.505-6.044-30.219-12.087-8.461-2.417-16.922 1.209-20.549 8.461-1.209 3.626-1.209 6.044 0 9.67 6.044 30.219 18.131 94.282 25.384 142.632 3.626 26.592 6.044 47.141 6.044 47.141-27.801 35.054-49.559 74.942-65.272 116.040-14.505 41.097-21.757 83.404-21.757 128.127 0 119.666 54.394 227.244 143.841 304.604 88.239 77.36 209.113 125.71 344.493 125.71zM811.069 747.324c-82.195 72.525-197.026 117.248-322.735 117.248-126.918 0-241.749-44.724-323.944-117.248s-132.962-171.642-132.962-281.638c0-41.097 7.252-79.777 20.549-117.248 13.296-38.68 33.845-74.942 59.229-107.578 6.044-8.461 6.044-36.262 1.209-70.107-6.044-37.471-14.505-83.404-20.549-117.248l2.417 1.209c66.481 26.592 163.181 65.272 175.268 60.437 32.636-14.505 68.899-26.592 107.578-35.054 36.262-8.461 73.734-12.087 111.205-12.087 125.71 0 240.541 44.724 322.735 117.248 82.195 71.316 132.962 171.642 132.962 280.429 0 109.996-50.767 209.113-132.962 281.638zM676.898 504.366c21.757 0 38.68-18.131 38.68-38.68 0-21.757-16.922-38.68-38.68-38.68s-38.68 16.922-38.68 38.68c0 20.549 16.922 38.68 38.68 38.68zM475.038 504.366c21.757 0 38.68-18.131 38.68-38.68 0-21.757-16.922-38.68-38.68-38.68s-38.68 16.922-38.68 38.68c0 20.549 16.922 38.68 38.68 38.68z"  horiz-adv-x="1083" />

    
    <glyph glyph-name="jiao" unicode="&#59082;" d="M512 384m-512 0a512 512 0 1 1 1024 0 512 512 0 1 1-1024 0ZM512 384m-443.733333 0a443.733333 443.733333 0 1 1 887.466666 0 443.733333 443.733333 0 1 1-887.466666 0ZM323.310933 603.272533h237.568v-56.251733H374.647467l-10.922667-107.042133h1.6384c12.014933 12.014933 25.668267 20.753067 41.506133 26.2144 14.199467 5.461333 30.037333 8.192 47.5136 8.192 36.590933 0 66.628267-12.014933 89.565867-36.0448 22.9376-24.029867 34.952533-57.344 34.952533-99.396267 0-40.413867-15.291733-73.181867-45.8752-98.850133a154.692267 154.692267 0 0 0-100.488533-34.4064c-35.498667 0-66.082133 9.8304-91.204267 28.945066-28.398933 21.2992-43.690667 50.244267-46.421333 86.289067h62.805333c2.730667-21.2992 10.922667-37.137067 25.122134-47.5136 12.014933-8.738133 28.945067-13.653333 50.244266-13.653333 22.9376 0 42.5984 7.099733 58.436267 21.2992 15.291733 14.199467 23.483733 33.314133 23.483733 57.344 0 26.2144-7.099733 46.967467-20.206933 61.713066-13.1072 15.291733-32.768 22.391467-57.890133 22.391467-16.930133 0-31.675733-2.730667-43.690667-8.738133-13.653333-6.5536-24.029867-16.384-31.675733-30.037334h-59.528534l21.2992 219.5456zM673.109333 295.253333v-1.092266c-0.273067-8.192-0.8192-15.837867-1.6384-23.210667h56.5248V295.253333H673.109333z m-5.7344-49.425066a154.8288 154.8288 0 0 0-30.583466-62.2592l-21.845334 19.933866c19.6608 22.9376 29.764267 52.4288 30.3104 88.4736v58.1632c-4.9152-3.549867-10.103467-6.826667-15.018666-10.103466l-18.295467 22.1184c31.675733 18.0224 58.9824 43.963733 82.193067 77.277866l28.672-6.5536c-3.2768-4.9152-6.826667-9.8304-10.103467-14.7456h97.211733v-20.753066c-9.557333-9.284267-19.114667-17.749333-28.672-24.849067h63.0784V213.333333c0-18.0224-10.6496-27.0336-31.402666-27.0336h-34.133334l-6.826666 26.2144c11.741867-0.8192 22.664533-1.365333 32.768-1.365333 7.645867 0 11.4688 4.096 11.4688 12.014933v22.664534h-60.074667v-55.978667h-28.125867v55.978667h-60.6208z m148.821334 25.122133V295.253333h-60.074667v-24.302933h60.074667z m0 49.425067v26.487466h-60.074667v-26.487466h60.074667z m-143.36 52.155733h68.539733c9.557333 6.280533 19.114667 13.380267 28.945067 21.026133h-77.0048a298.461867 298.461867 0 0 0-20.48-21.026133z m55.159466-25.668267H673.109333v-26.487466h54.8864v26.487466z"  horiz-adv-x="1024" />

    
    <glyph glyph-name="yiyuan" unicode="&#59083;" d="M512 384m-512 0a512 512 0 1 1 1024 0 512 512 0 1 1-1024 0ZM512 384m-443.733333 0a443.733333 443.733333 0 1 1 887.466666 0 443.733333 443.733333 0 1 1-887.466666 0ZM399.7696 603.272533h48.059733V213.333333h-63.8976V526.267733c-23.483733-21.2992-52.974933-37.137067-89.019733-47.5136v63.351467c17.476267 4.369067 36.0448 12.014933 55.7056 22.9376 19.6608 12.014933 36.0448 24.576 49.152 38.229333z m137.079467-178.039466h191.146666v-27.306667h-191.146666v27.306667z m-21.2992-80.008534h236.202666v-27.579733h-72.362666v-92.296533c0-7.099733 3.003733-10.6496 9.284266-10.6496h30.037334c3.2768 0 6.007467 2.184533 7.645866 6.280533 1.911467 4.369067 3.2768 17.749333 3.822934 39.867733l25.668266-8.192c-1.911467-30.856533-5.461333-49.152-10.376533-54.8864a27.511467 27.511467 0 0 0-21.572267-8.465066h-43.4176c-19.387733 0-28.945067 10.103467-28.945066 30.037333v98.304h-40.413867v-5.461333c-1.365333-34.679467-9.0112-62.532267-22.9376-83.285334-13.653333-19.114667-35.498667-34.133333-66.082133-44.782933l-15.291734 24.029867c29.4912 10.376533 49.152 23.483733 59.528534 38.775466 10.376533 16.930133 15.837867 38.5024 16.930133 65.262934v5.461333h-67.720533v27.579733z"  horiz-adv-x="1024" />

    
    <glyph glyph-name="hudong1" unicode="&#58933;" d="M1173.515043-128.053903c-168.340581 0-174.806928 158.856604-294.488244 233.111828-45.264433 23.656055-145.600592 33.786666-229.716996 37.235385-84.062518-3.448719-184.344791-13.57933-229.609223-37.235385-119.735202-74.255224-126.201549-233.111828-294.488244-233.111828-119.681315 0-139.080358 168.987215-116.340369 371.70721C47.670052 622.204069 121.925276 895.838341 358.10862 895.838341c119.681315 0 177.986216-44.456139 287.860237-54.640636C752.82525 851.382202 814.363324 895.838341 934.044639 895.838341c236.183343 0 310.54634-273.634273 352.685371-655.633752 19.345156-202.719995 3.233174-371.70721-113.214967-368.258492zM531.245075 601.45787a177.447353 177.447353 0 0 1-153.952958 89.6128c-98.18071 0-177.770671-80.236596-177.77067-179.225599 0-98.935117 79.589961-179.171713 177.77067-179.171713a177.447353 177.447353 0 0 1 153.952958 89.6128 180.195551 180.195551 0 0 1 0 179.171712z m539.347269-40.737989h-77.865601V624.682835a50.114193 50.114193 0 0 1-49.683103 50.114193h-2.15545a49.629217 49.629217 0 0 1-35.187707-14.657054 50.329738 50.329738 0 0 1-14.603169-35.457139v-63.962954h-76.249014a46.342157 46.342157 0 0 1-46.180499-46.503816 46.342157 46.342157 0 0 1 46.180499-46.557702h76.249014v-68.59717c0-27.643636 22.255013-50.114193 49.790876-50.114194h2.15545a49.575331 49.575331 0 0 1 35.133821 14.657055 50.383624 50.383624 0 0 1 14.549282 35.457139V467.658363h77.865601a46.342157 46.342157 0 0 1 46.180499 46.557702 46.342157 46.342157 0 0 1-46.180499 46.503816zM377.292117 425.734876a85.786877 85.786877 0 0 0-85.409673 86.110195c0 47.581541 38.259223 86.110195 85.409673 86.110194 30.499606 0 58.73599-16.381414 73.985793-43.055097a86.756829 86.756829 0 0 0 0-86.110194 85.355787 85.355787 0 0 0-73.985793-43.055098z"  horiz-adv-x="1293" />

    
    <glyph glyph-name="yuanfenqi" unicode="&#58923;" d="M921.6 725.333333a68.266667 68.266667 0 0 0 68.266667-68.266666v-580.266667a68.266667 68.266667 0 0 0-68.266667-68.266667H102.4a68.266667 68.266667 0 0 0-68.266667 68.266667V657.066667a68.266667 68.266667 0 0 0 68.266667 68.266666h819.2z m-551.287467-204.8H332.731733a6.826667 6.826667 0 0 1-6.485333-9.079466l25.053867-71.441067H314.026667a6.826667 6.826667 0 0 1-6.826667-6.826667v-25.2928c0-3.754667 3.072-6.826667 6.826667-6.826666h70.109866v-43.8272H314.026667a6.826667 6.826667 0 0 1-6.826667-6.826667v-25.668267c0-3.754667 3.072-6.826667 6.826667-6.826666h70.109866V254.293333c0-3.754667 3.072-6.826667 6.826667-6.826666h31.5392a6.826667 6.826667 0 0 1 6.826667 6.826666v63.624534h68.4032a6.826667 6.826667 0 0 1 6.826666 6.826666v25.668267a6.826667 6.826667 0 0 1-6.826666 6.826667h-68.4032V401.066667h68.4032a6.826667 6.826667 0 0 1 6.826666 6.826666v25.2928a6.826667 6.826667 0 0 1-6.826666 6.826667H459.776l24.610133 71.4752a6.826667 6.826667 0 0 1-6.4512 9.045333h-36.317866a6.826667 6.826667 0 0 1-6.3488-4.369066l-29.422934-76.117334-29.218133 76.117334A6.826667 6.826667 0 0 1 370.346667 520.533333z m246.852267 34.133334c-50.858667-1.194667-81.339733-28.16-91.477333-80.896a6.826667 6.826667 0 0 1 6.724266-8.0896h41.642667a6.826667 6.826667 0 0 1 6.724267 5.597866c4.027733 22.2208 16.1792 33.314133 36.386133 33.314134 23.552 0 36.795733-15.36 36.795733-38.058667 0-14.1312-4.676267-23.552-15.803733-36.795733l-113.834667-132.1984V247.466667h178.449067a6.826667 6.826667 0 0 1 6.826667 6.826666v36.420267a6.826667 6.826667 0 0 1-6.826667 6.826667h-110.830933l85.128533 98.816c20.957867 24.405333 32.529067 40.209067 32.529067 69.7344C709.597867 520.874667 671.061333 554.666667 617.130667 554.666667z"  horiz-adv-x="1024" />

    
    <glyph glyph-name="yinyong" unicode="&#58913;" d="M65.16158-12.353097 65.16158 370.422773c-1.629103 55.076386 6.312776 106.791212 23.820522 155.149593 17.502629 48.356334 42.041512 90.905406 73.803913 127.662565 31.659047 36.645618 69.529563 67.086931 113.817232 91.316775 44.184315 24.12956 92.13235 39.600927 143.847176 46.215578l0-165.120688c-63.420425-21.683858-106.789165-53.748135-130.105197-96.306416-23.416316-42.555212-35.018561-94.675266-35.018561-156.366304l165.118642 0 0-385.323902L65.16158-12.350027 65.16158-12.353097 65.16158-12.353097zM598.094332-12.353097 598.094332 370.422773c-1.731434 55.076386 6.212492 106.791212 23.716144 155.149593 17.514909 48.356334 42.147936 90.905406 73.80596 127.662565 31.658024 36.645618 69.629847 67.086931 113.817232 91.316775 44.185338 24.12956 92.235704 39.600927 143.953599 46.215578l0-165.120688c-63.424518-21.683858-106.793258-53.748135-130.108267-96.306416-23.414269-42.555212-35.018561-94.675266-35.018561-156.366304l165.125805 0 0-385.323902-355.291912 0L598.094332-12.353097 598.094332-12.353097z"  horiz-adv-x="1024" />

    
    <glyph glyph-name="jiacu" unicode="&#58974;" d="M687.168 65.92c-26.624-30.464-68.8-46.144-126.4-47.104h-266.24V326.4h266.24c57.6-0.896 99.712-16.128 126.4-45.632 26.624-30.016 40-66.048 40-108.16 0-41.216-13.312-76.8-40-106.752z m-392.64 691.712h251.52c56.576-0.96 98.304-14.72 124.928-41.472 27.2-28.544 40.768-63.424 40.768-104.64s-13.568-75.392-40.768-102.528c-26.624-29.44-68.352-44.288-124.992-44.288H294.528V757.76z m547.84-446.72c-28.544 44.032-70.72 73.28-126.4 87.808v2.816c29.504 14.016 54.336 29.696 74.432 47.04 20.16 16.384 35.584 33.728 46.336 51.968 21.12 38.4 31.168 78.656 30.208 120.832 0 82.368-25.536 148.672-76.544 198.784C739.84 869.76 664.192 895.104 563.52 896H128v-1024h469.952c80.576 0 147.712 26.88 201.6 80.768 54.336 51.52 81.92 121.472 82.88 209.92 0 53.44-13.376 102.848-40.064 148.224z"  horiz-adv-x="1024" />

    
    <glyph glyph-name="tupian1" unicode="&#59086;" d="M778 712.2H247c-50.8 0-92-41.2-92-92v-435c-1.2-4.8-1.2-9.4 0-14v-23.6c0-50.8 41.2-92 92-92h531c50.8 0 92 41.2 92 92V620.2c0 50.8-41.2 92-92 92z m-531-56h531c19.8 0 36-16.2 36-36v-349.4c-20.8 28.2-46 59-72.2 83.4-15.6 14.6-35 20.6-56.2 17.6-33.4-4.8-70-32.6-111.8-84.8-10-12.4-19-24.8-26.4-35.4-36.8 50.8-109.2 144.6-170.6 187.8-18.2 12.8-38.6 15.8-59.4 9-22.6-7.4-44.6-26.6-67-58.6-13-18.4-26.2-41.2-39.6-68V620.2c0.2 20 16.2 36 36.2 36zM632 521.2a63 63 0 1 1 126 0 63 63 0 1 1-126 0z"  horiz-adv-x="1024" />

    
    <glyph glyph-name="fensi" unicode="&#59087;" d="M787.680736 831.981964 236.319264 831.981964c-95.15929 0-172.300204-77.141938-172.300204-172.300204l0-551.362496c0-95.15929 77.141938-172.300204 172.300204-172.300204l551.362496 0c95.15929 0 172.300204 77.141938 172.300204 172.300204L959.981964 659.680736C959.981964 754.840026 882.840026 831.981964 787.680736 831.981964zM432.739818 631.085468l34.114982-15.160281c-11.277858-47.290049-27.207665-93.343945-47.555086-137.495514l-28.600385 14.125719C410.94135 536.605653 425.083441 583.214181 432.739818 631.085468zM270.089391 628.325611c16.279778-43.689035 28.957519-88.632643 37.905308-134.390803l-32.735565-13.780865c-7.150864 46.086641-19.283182 91.26561-36.18513 134.735657L270.089391 628.325611zM329.704141 103.498468c3.091408 22.605857 4.362354 45.422516 3.790326 68.229964L333.494467 281.655054c0 23.093974 0.685615 60.305481 2.409886 96.835466-15.413038-67.88511-46.843888-131.101897-91.664699-184.364985-6.520507 12.375865-14.626115 23.843034-24.12035 34.114982 50.444902 54.331419 86.466304 120.442116 104.759949 192.290491l-47.89994 0c-14.882965 0.277316-29.756721-0.757247-44.454468-3.104711l0 39.97034c15.152095-2.423189 30.489408-3.457752 45.830815-3.104711l54.44603 0L332.801688 600.402655c0.735757 21.638833-0.298805 43.310412-3.100618 64.781422l43.075051 0c-2.831488-21.469987-3.870144-43.142589-3.100618-64.781422l0-146.110729 34.114982 0c14.083763-0.530073 28.183899 0.512676 42.040489 3.104711l0-31.010271c37.321 46.053895 64.452941 99.494015 79.605036 156.795069 7.722892 22.051225 12.69923 44.968168 14.81952 68.229964l42.040489-14.125719c-3.344165-8.261151-5.994528-16.792455-7.925507-25.499767-19.59836-79.293951-55.383378-153.682171-105.104803-218.479967-7.387247 9.31311-15.69854 17.860786-24.810059 25.499767-1.636267-0.025583-3.264347 0.210801-4.824889 0.689708-5.514597 0.344854-24.12035 1.034563-37.905308 1.034563l-32.04995 0 0-21.024849c34.565237-36.436864 65.815985-75.869968 93.3859-117.851105l-25.154913-24.12035c-19.782555 34.802644-42.614563 67.780733-68.225871 98.55462l0-184.359868c-0.858554-22.799262 0.294712-45.632293 3.445472-68.229964L329.704141 103.498468zM738.750327 374.703263c-1.295506-68.448952-8.211009-136.679939-20.674878-204.001207-0.147356-2.902096-0.517793-5.78782-1.106194-8.623401-6.359848-30.716582-36.412304-50.462299-67.12377-44.101427-16.539698 0-40.320311 1.034563-60.650335 2.415003-1.106194 13.469779-3.764744 26.770713-7.925507 39.625486 21.053502-3.735068 42.36897-5.813403 63.74993-6.200212 24.810059 0 29.634948 6.200212 37.905308 43.419905 9.624195 63.089897 15.034415 126.751822 16.194844 190.565197L594.70463 387.802606c-0.660032-25.281803-3.777023-50.444902-9.304923-75.120908-10.546194-56.106856-36.567847-108.151185-75.125001-150.250002-22.7614-23.590278-48.888454-43.680848-77.534887-59.615773-7.349385 12.350283-17.069771 23.127743-28.600385 31.701003 49.430806 23.261797 90.297562 61.47512 116.820636 109.23589 18.008142 34.754548 29.122271 72.672136 32.735565 111.650893 0.685615 7.580652 1.375324 14.470573 2.755764 32.390711l0.008186 0.008186-6.889921 0c-17.625426 0.143263-35.238572-0.900509-52.724829-3.104711l0 41.005926c18.48398-2.65855 37.160341-3.701299 55.825446-3.104711l140.251278 0c16.578584-0.378623 33.160237 0.428765 49.620118 2.415003C739.878011 408.381293 738.611158 391.546883 738.750327 374.703263zM773.555018 390.89913c-51.421136 64.309678-91.509157 136.907113-118.540813 214.685547-3.752464 11.576663-8.597819 22.765493-14.474666 33.425274-0.340761 1.901303-0.920976 3.752464-1.724271 5.510504-0.715291 1.194198-1.295506 2.465145-1.724271 3.794419l38.943964 14.815427c6.343475-25.634844 14.638395-50.747801 24.810059-75.120908 24.747637-60.977793 59.582003-117.362988 103.035678-166.789701C792.278451 412.722158 782.052552 402.500353 773.555018 390.89913z"  horiz-adv-x="1024" />

    
    <glyph glyph-name="huaji" unicode="&#59214;" d="M274.8416 601.52832c50.37056 4.85376 102.23616-8.71424 143.95392-37.31456 14.42816-9.80992 27.92448-21.16608 39.13728-34.58048 3.98336-5.08928 7.08608-10.78272 10.14784-16.44544 13.9264-30.01344 6.12352-68.22912-18.176-90.61376-20.48-19.59936-52.20352-27.65824-79.12448-17.83808-13.08672 4.608-26.5216 8.3456-40.192 10.76224-37.24288 6.5536-75.86816 2.82624-111.80032-8.6016-9.95328-1.73056-20.19328-3.04128-30.28992-1.4848-15.90272 1.97632-31.31392 8.63232-43.19232 19.47648-13.73184 12.48256-23.05024 29.7472-26.05056 48.05632-2.57024 18.5344 1.3312 37.94944 11.25376 53.85216 6.02112 8.18176 12.45184 16.35328 21.07392 21.95456 8.0384 7.87456 17.42848 14.21312 26.76736 20.43904 29.07136 18.05312 62.34112 29.48096 96.49152 32.33792m-67.97312-35.23584c-16.39424-1.81248-32.11264-9.15456-44.07296-20.49024-12.86144-12.0832-21.27872-28.74368-23.45984-46.25408-2.48832-18.7904 2.54976-38.38976 13.47584-53.85216 11.60192-16.5888 30.0544-28.22144 50.04288-31.42656 16.09728-2.79552 33.05472-0.17408 47.5648 7.31136 14.16192 7.13728 25.9584 18.85184 33.23904 32.94208 7.64928 14.6432 10.47552 31.81568 7.6288 48.10752-3.14368 19.49696-14.26432 37.5808-30.22848 49.21344-15.40096 11.37664-35.15392 16.7424-54.19008 14.44864zM711.91552 601.71264c53.69856 4.64896 109.03552-11.27424 151.61344-44.4416 4.47488-2.92864 7.79264-7.22944 12.19584-10.22976 7.43424-5.23264 12.93312-12.5952 18.39104-19.73248 9.04192-14.20288 13.21984-31.32416 12.26752-48.09728-2.23232-31.17056-23.95136-60.61056-54.00576-70.17472-17.6128-5.96992-37.16096-5.5808-54.6816 0.43008-21.66784 5.82656-44.05248 9.50272-66.52928 9.24672-25.99936 0-51.82464-5.00736-76.26752-13.74208-29.16352-10.94656-63.96928-0.8192-84.39808 22.25152-21.06368 23.02976-26.7776 59.06432-12.97408 87.18336 5.2736 10.62912 12.73856 19.95776 21.44256 27.98592 35.91168 34.03776 83.6096 55.35744 132.94592 59.32032m-70.97344-33.34144c-19.712-2.29376-38.4-12.46208-50.85184-27.94496-13.02528-15.99488-19.32288-37.41696-16.56832-57.89696 1.93536-15.86176 9.03168-31.03744 19.89632-42.73152 12.19584-13.18912 29.15328-21.89312 47.0016-23.98208 19.17952-2.51904 39.19872 2.83648 54.74304 14.30528 12.89216 9.34912 22.58944 22.90688 27.55584 38.02112 4.7616 14.41792 5.07904 30.22848 0.89088 44.82048-4.7104 16.75264-15.29856 31.81568-29.57312 41.78944-15.23712 10.83392-34.52928 15.80032-53.0944 13.6192zM469.97504 778.41408c7.66976-0.08192 15.33952 2.03776 22.96832 0.73728-7.03488-0.68608-14.09024-1.42336-21.16608-1.45408-0.45056 0.17408-1.35168 0.54272-1.80224 0.7168zM445.41952 762.27584c24.36096 4.12672 49.08032 5.24288 73.728 5.98016 11.91936-0.8192 23.8592-1.3312 35.76832-2.26304 12.76928-1.52576 25.36448-4.18816 38.01088-6.48192 14.5408-2.38592 28.44672-7.40352 42.52672-11.6224 8.06912-2.31424 15.75936-5.69344 23.4496-9.04192 7.85408-3.3792 15.74912-6.68672 23.43936-10.42432 9.5744-4.92544 18.86208-10.36288 28.38528-15.38048 0.60416-0.29696 1.82272-0.88064 2.42688-1.1776-18.10432-3.79904-34.2528-16.01536-42.72128-32.4608-0.79872-1.87392-0.7168-4.06528-0.06144-5.96992 1.4848-2.68288 5.07904-2.99008 7.65952-1.93536 2.03776 1.44384 3.21536 3.74784 4.61824 5.74464 9.51296 15.59552 27.84256 25.2416 46.0288 24.68864 25.38496-18.16576 49.21344-38.67648 70.05184-61.96224 15.58528-16.93696 28.71296-35.93216 40.87808-55.3984-14.99136 7.60832-30.45376 14.4384-46.6944 18.8928-45.21984 12.72832-94.3616 11.40736-138.68032-4.27008-31.91808-11.04896-61.1328-29.41952-85.31968-52.95104-13.34272-10.9568-21.54496-26.96192-25.83552-43.44832-4.22912-16.96768-3.5328-35.15392 2.36544-51.65056 5.66272-16.96768 16.88576-31.86688 31.20128-42.50624 14.10048-10.5984 31.4368-16.52736 48.97792-17.67424 10.10688 0.16384 20.36736 0.77824 30.02368 4.00384 14.63296 5.36576 29.77792 9.44128 45.18912 11.8784 16.14848 2.0992 32.52224 3.04128 48.78336 1.56672 17.14176-1.35168 34.03776-4.93568 50.56512-9.58464 12.6464-4.1984 26.39872-5.1712 39.48544-2.58048 20.8384 2.78528 40.448 13.42464 54.20032 29.32736 0.1024-0.7168 0.28672-2.14016 0.37888-2.84672 2.02752-18.29888 2.33472-36.73088 1.98656-55.13216-2.304-32.50176-6.76864-65.05472-16.50688-96.23552-9.2672-28.64128-21.01248-56.60672-36.46464-82.49344-13.63968-21.42208-28.18048-42.36288-45.02528-61.40928-15.98464-18.85184-34.74432-35.1232-54.39488-50.0224-19.58912-14.45888-40.20224-27.71968-62.23872-38.12352-13.4144-6.32832-26.75712-12.9024-40.86784-17.57184-32.11264-11.81696-66.048-17.84832-100.03456-20.87936-29.67552-2.68288-59.66848-1.13664-89.02656 3.80928-22.55872 3.34848-44.53376 9.61536-66.26304 16.39424-17.7664 6.37952-35.51232 13.13792-51.97824 22.46656-17.38752 9.55392-34.304 19.97824-50.21696 31.8464-14.20288 10.15808-26.94144 22.15936-39.85408 33.86368-11.9808 11.25376-22.9376 23.59296-32.79872 36.73088-13.81376 17.14176-25.43616 35.91168-36.28032 55.01952-7.8336 15.08352-15.104 30.49472-21.27872 46.336-4.03456 10.82368-7.65952 21.78048-11.0592 32.8192-4.1984 13.50656-6.23616 27.5456-8.79616 41.41056-3.62496 20.62336-4.94592 41.54368-5.39648 62.44352-0.23552 12.55424 0.86016 25.07776 1.88416 37.57056 0.19456 1.73056 0.41984 3.45088 0.64512 5.15072 12.02176-14.87872 29.46048-25.10848 48.0768-29.22496 9.35936-1.77152 18.90304-3.57376 28.45696-2.29376 9.3184 0.28672 17.9712 3.98336 26.95168 6.0416 24.55552 6.27712 50.10432 9.472 75.42784 7.12704 20.84864-1.2288 41.25696-6.56384 60.83584-13.63968 9.472-3.05152 19.49696-3.60448 29.3888-3.76832 15.60576 1.00352 30.99648 5.888 44.15488 14.36672 13.94688 9.09312 25.51808 22.016 32.4608 37.19168 7.82336 16.896 10.61888 36.21888 7.03488 54.55872-3.55328 18.8416-12.4928 37.2736-27.50464 49.60256-37.04832 36.1472-86.49728 59.38176-138.06592 64.27648-41.71776 4.12672-84.69504-3.10272-122.37824-21.62688-3.65568-1.78176-7.34208-3.4816-10.96704-5.3248 20.62336 32.88064 44.83072 63.96928 74.752 88.9344 11.81696 10.47552 24.64768 19.70176 37.376 29.00992 15.31904 0.47104 30.62784-6.31808 40.84736-17.69472 3.13344-3.46112 5.30432-7.63904 8.18176-11.29472 2.36544-3.46112 9.24672-2.47808 9.70752 2.00704 0.74752 3.60448-1.5872 6.66624-3.45088 9.472-8.98048 13.9264-23.72608 24.23808-40.0384 27.38176 0.88064 0.47104 1.76128 0.95232 2.64192 1.4336 15.62624 9.34912 31.7952 17.87904 48.73216 24.6272 26.4704 11.19232 54.19008 19.54816 82.51392 24.39168M260.1984 338.944c-7.23968-0.80896-14.46912-1.91488-21.46304-4.00384-9.6768-2.94912-19.79392-5.79584-27.63776-12.51328-5.64224-4.79232-11.13088-10.71104-12.65664-18.18624-2.11968-10.94656 3.06176-22.72256 12.31872-28.84608 5.53984-4.37248 11.74528-7.92576 18.46272-10.15808 8.3456-2.79552 16.91648-5.3248 25.74336-5.96992 6.31808-1.05472 12.75904-0.55296 19.11808-1.28 8.13056 0.9728 16.41472-0.17408 24.44288 1.81248 7.936 0.84992 15.616 3.04128 23.17312 5.5296 10.20928 4.07552 20.30592 9.76896 26.6752 19.00544 3.33824 6.15424 5.69344 13.52704 3.44064 20.45952-2.6624 11.58144-13.07648 18.96448-23.00928 24.13568-21.44256 9.43104-45.39392 12.36992-68.608 10.01472m486.30784 0.17408c-9.64608-1.09568-19.43552-1.792-28.672-5.00736-13.6704-3.75808-28.25216-10.5472-34.93888-23.81824-3.16416-5.5808-3.34848-12.38016-1.90464-18.50368 3.072-10.09664 11.60192-17.47968 20.72576-22.1696 13.4656-7.00416 28.66176-10.22976 43.73504-11.08992 5.82656 0.3072 11.6224-1.25952 17.42848-0.14336 18.4832 0.03072 37.18144 3.98336 53.504 12.8512 3.9424 2.75456 7.64928 5.86752 11.12064 9.19552 3.72736 3.60448 4.84352 8.83712 6.08256 13.6704 2.34496 9.09312-2.10944 18.67776-8.68352 24.8832-4.61824 4.08576-9.2672 8.48896-15.2064 10.5472-10.21952 3.96288-20.70528 7.66976-31.72352 8.43776-10.42432 1.34144-20.98176 2.44736-31.46752 1.14688M452.29056 200.99072c-6.144-5.45792-11.32544-12.34944-13.38368-20.4288-3.72736-11.65312-1.91488-24.75008 4.29056-35.2256 5.29408-8.76544 13.70112-15.62624 23.40864-18.92352 12.76928-4.37248 27.58656-2.44736 38.7072 5.25312 2.64192 1.72032 4.82304 4.03456 7.4752 5.72416 10.68032-11.23328 27.58656-15.89248 42.53696-11.88864 9.71776 2.57024 18.52416 8.54016 24.3712 16.73216 8.02816 11.07968 10.51648 26.04032 6.13376 39.05536-2.19136 7.76192-7.2192 14.4384-13.18912 19.712-3.1232 2.87744-8.16128 1.60768-10.00448-2.08896-0.6656-5.35552 4.58752-8.20224 7.34208-11.99104 10.87488-13.57824 7.28064-35.70688-7.18848-45.312-12.55424-9.30816-31.6928-7.29088-42.0864 4.34176-2.46784 2.60096-4.31104 7.15776-8.67328 6.37952-3.6352 0.27648-5.19168-3.59424-7.30112-5.82656-10.76224-12.7488-31.71328-14.41792-44.35968-3.52256-13.48608 10.47552-15.8208 32.28672-4.42368 45.12768 2.44736 3.1744 7.2704 5.89824 6.144 10.5472-1.15712 4.17792-6.8608 5.1712-9.79968 2.33472zM492.94336 779.15136c18.6368 1.18784 37.34528 0.24576 55.93088-1.31072 15.23712-0.65536 30.1568-4.11648 45.11744-6.77888 7.28064-1.2288 14.3872-3.18464 21.56544-4.864l0.72704-0.50176c5.77536-1.54624 11.56096-3.14368 17.19296-5.1712 4.11648-1.8944 8.448-3.2768 12.89216-4.20864 9.30816-3.10272 18.20672-7.3216 27.21792-11.18208 11.06944-4.5568 21.47328-10.5472 32.06144-16.10752 8.71424-4.5568 17.0496-9.75872 25.31328-15.08352-6.7584-0.02048-13.47584-1.41312-20.23424-0.90112-9.5232 5.0176-18.81088 10.45504-28.38528 15.38048-7.69024 3.7376-15.58528 7.04512-23.43936 10.42432-7.69024 3.34848-15.38048 6.72768-23.4496 9.04192-14.08 4.21888-27.98592 9.23648-42.52672 11.6224-12.6464 2.29376-25.2416 4.95616-38.01088 6.48192-11.90912 0.93184-23.84896 1.44384-35.76832 2.26304-24.64768-0.73728-49.36704-1.85344-73.728-5.98016-28.32384-4.84352-56.04352-13.19936-82.51392-24.39168-16.93696-6.74816-33.10592-15.27808-48.73216-24.6272-6.73792-0.73728-13.52704 0.3072-20.24448 0.91136 9.82016 7.30112 20.69504 13.04576 31.232 19.22048 37.13024 19.29216 77.08672 33.3824 118.34368 40.54016 9.35936 1.72032 18.76992 3.29728 28.27264 3.76832 7.07584 0.03072 14.1312 0.768 21.16608 1.45408zM263.60832 690.75968c9.32864 7.02464 20.8896 11.49952 32.67584 11.19232-12.72832-9.30816-25.55904-18.5344-37.376-29.00992-29.92128-24.96512-54.12864-56.05376-74.752-88.9344-5.50912-3.1232-10.91584-6.41024-16.1792-9.92256-0.41984 0.53248-1.25952 1.5872-1.6896 2.11968-1.03424-1.59744-2.05824-3.19488-3.18464-4.74112 16.0256 28.61056 34.70336 55.84896 56.7296 80.1792 11.64288 12.66688 24.20736 24.46336 37.33504 35.56352l1.24928 0.7168c1.75104 0.90112 3.584 1.67936 5.19168 2.83648zM728.6784 701.93152c13.44512 0.52224 25.97888-5.72416 36.4032-13.70112 22.14912-18.30912 42.0864-39.24992 59.91424-61.76768 11.95008-15.86176 22.70208-32.58368 32.64512-49.75616-1.49504-0.3072-3.16416-1.2288-4.56704-0.2048-4.5056 2.67264-8.8064 5.67296-13.4656 8.06912-12.16512 19.46624-25.2928 38.46144-40.87808 55.3984-20.8384 23.28576-44.66688 43.79648-70.05184 61.96224zM119.2448 435.41504c0.90112 0.74752 1.80224 1.50528 2.70336 2.2528 3.33824-4.9152 8.31488-9.60512 7.69024-16.09728-1.024-12.4928-2.11968-25.01632-1.88416-37.57056 0.45056-20.89984 1.77152-41.82016 5.39648-62.44352 2.56-13.86496 4.59776-27.904 8.79616-41.41056 3.39968-11.03872 7.02464-21.99552 11.0592-32.8192 6.17472-15.84128 13.44512-31.25248 21.27872-46.336 10.84416-19.10784 22.46656-37.87776 36.28032-55.01952 9.86112-13.13792 20.81792-25.47712 32.79872-36.73088 12.91264-11.70432 25.6512-23.7056 39.85408-33.86368 15.91296-11.86816 32.82944-22.29248 50.21696-31.8464 16.46592-9.32864 34.21184-16.08704 51.97824-22.46656 21.72928-6.77888 43.70432-13.04576 66.26304-16.39424 29.35808-4.94592 59.35104-6.49216 89.02656-3.80928 33.98656 3.03104 67.92192 9.0624 100.03456 20.87936 14.11072 4.66944 27.45344 11.24352 40.86784 17.57184 22.03648 10.40384 42.6496 23.66464 62.23872 38.12352 19.65056 14.8992 38.41024 31.17056 54.39488 50.0224 16.8448 19.0464 31.3856 39.9872 45.02528 61.40928 15.45216 25.88672 27.19744 53.85216 36.46464 82.49344 9.73824 31.1808 14.20288 63.73376 16.50688 96.23552 0.34816 18.40128 0.04096 36.83328-1.98656 55.13216 0.6144 5.21216 4.7104 8.86784 7.69024 12.84096 0.8704-0.78848 1.7408-1.5872 2.63168-2.39616 1.40288-11.28448 2.70336-22.58944 2.59072-33.98656 0.74752 5.82656 0.45056 11.70432 0.65536 17.5616 0.31744-8.5504-0.67584-17.08032-0.2048-25.62048 0.39936-15.57504-0.0512-31.20128-1.92512-46.66368-2.65216-26.83904-7.82336-53.49376-15.98464-79.21664-0.58368-2.06848-1.28-4.096-2.06848-6.10304-6.00064-18.05312-13.34272-35.66592-21.74976-52.736-10.09664-20.74624-23.01952-39.95648-36.4544-58.65472-13.03552-17.54112-27.32032-34.21184-43.02848-49.408-19.03616-17.7664-39.54688-33.98656-61.53216-47.95392-20.45952-13.23008-42.41408-23.99232-64.77824-33.5872-5.91872-2.36544-11.99104-4.352-17.90976-6.72768-4.1472-1.2288-8.2432-2.65216-12.30848-4.12672-14.53056-4.66944-29.48096-7.8848-44.47232-10.7008-31.19104-5.57056-63.0272-8.46848-94.69952-6.47168-9.55392 1.3824-19.23072 1.67936-28.75392 3.29728-19.34336 2.70336-38.62528 6.22592-57.33376 11.90912-2.46784 0.78848-5.0176 1.26976-7.55712 1.66912-4.29056 1.024-8.56064 2.24256-12.66688 3.84-6.46144 3.03104-13.35296 4.99712-19.92704 7.75168-4.18816 1.57696-8.18176 3.70688-12.56448 4.67968-8.71424 3.33824-16.78336 8.13056-25.05728 12.40064-18.37056 9.59488-35.76832 20.96128-52.39808 33.29024-8.2944 5.9392-16.13824 12.47232-23.64416 19.34336-11.59168 10.21952-22.96832 20.72576-33.1776 32.34816-12.46208 14.27456-24.576 28.93824-34.78528 44.93312-7.90528 12.1344-15.68768 24.38144-22.24128 37.31456-5.20192 10.00448-9.48224 20.45952-14.3872 30.60736-9.41056 23.27552-17.60256 47.23712-21.82144 72.04864-8.94976 43.0592-10.62912 87.57248-5.14048 131.20512zM633.47712 760.5248c4.47488-0.37888 9.10336-1.73056 12.89216-4.20864-4.44416 0.93184-8.77568 2.31424-12.89216 4.20864zM260.1984 338.944c23.21408 2.3552 47.16544-0.58368 68.608-10.01472 9.9328-5.1712 20.34688-12.55424 23.00928-24.13568 2.2528-6.93248-0.1024-14.30528-3.44064-20.45952-6.36928-9.23648-16.46592-14.92992-26.6752-19.00544-7.55712-2.48832-15.23712-4.67968-23.17312-5.5296-8.02816-1.98656-16.31232-0.83968-24.44288-1.81248-6.35904 0.72704-12.8 0.22528-19.11808 1.28-8.82688 0.64512-17.39776 3.1744-25.74336 5.96992-6.71744 2.23232-12.92288 5.7856-18.46272 10.15808-9.25696 6.12352-14.4384 17.89952-12.31872 28.84608 1.52576 7.4752 7.0144 13.39392 12.65664 18.18624 7.84384 6.71744 17.96096 9.56416 27.63776 12.51328 6.99392 2.08896 14.22336 3.19488 21.46304 4.00384zM746.50624 339.11808c10.48576 1.30048 21.0432 0.19456 31.46752-1.14688 11.01824-0.768 21.504-4.47488 31.72352-8.43776 5.9392-2.05824 10.58816-6.46144 15.2064-10.5472 6.57408-6.20544 11.02848-15.79008 8.68352-24.8832-1.23904-4.83328-2.3552-10.06592-6.08256-13.6704-3.47136-3.328-7.17824-6.44096-11.12064-9.19552-16.32256-8.86784-35.0208-12.82048-53.504-12.8512-5.80608-1.11616-11.60192 0.45056-17.42848 0.14336-15.07328 0.86016-30.26944 4.08576-43.73504 11.08992-9.12384 4.68992-17.65376 12.07296-20.72576 22.1696-1.44384 6.12352-1.25952 12.92288 1.90464 18.50368 6.68672 13.27104 21.26848 20.06016 34.93888 23.81824 9.23648 3.21536 19.02592 3.91168 28.672 5.00736zM351.8976 21.92384c4.38272-0.9728 8.37632-3.10272 12.56448-4.67968 6.57408-2.75456 13.4656-4.72064 19.92704-7.75168-2.99008-0.09216-5.66272 1.37216-8.3968 2.32448-7.58784 2.79552-15.14496 5.7344-22.56896 8.94976l-1.52576 1.15712zM397.056 5.65248c2.53952-0.39936 5.08928-0.88064 7.55712-1.66912 18.70848-5.6832 37.9904-9.20576 57.33376-11.90912 9.5232-1.61792 19.2-1.91488 28.75392-3.29728-4.87424-0.768-9.7792 0.01024-14.62272 0.52224-23.3472 2.73408-46.66368 6.46144-69.28384 13.0048-3.25632 1.05472-6.79936 1.47456-9.73824 3.34848zM280.4736 711.72096c4.4032 1.2288 9.03168 1.30048 13.45536 2.44736 6.71744-0.60416 13.50656-1.64864 20.24448-0.91136-0.88064-0.48128-1.76128-0.96256-2.64192-1.4336 16.31232-3.14368 31.05792-13.45536 40.0384-27.38176 1.86368-2.80576 4.1984-5.86752 3.45088-9.472-0.4608-4.48512-7.34208-5.46816-9.70752-2.00704-2.87744 3.65568-5.04832 7.8336-8.18176 11.29472-10.21952 11.37664-25.52832 18.16576-40.84736 17.69472-11.78624 0.3072-23.3472-4.16768-32.67584-11.19232-1.60768-1.15712-3.44064-1.93536-5.19168-2.83648-2.52928 0.32768-4.54656 1.72032-6.03136 3.75808-0.08192 2.28352-0.16384 4.80256 1.90464 6.2976 7.33184 6.72768 16.60928 11.18208 26.18368 13.74208zM710.72768 713.04192c6.7584-0.512 13.47584 0.88064 20.23424 0.90112 10.05568-1.0752 20.19328-3.23584 29.00992-8.41728 4.57728-2.6624 9.29792-5.41696 12.58496-9.69728-0.02048-1.37216-0.03072-2.74432-0.04096-4.11648-0.8192-0.9728-1.6384-1.93536-2.42688-2.9184-1.66912-0.21504-3.35872-0.38912-5.00736-0.5632-10.42432 7.97696-22.95808 14.22336-36.4032 13.70112-18.18624 0.55296-36.51584-9.09312-46.0288-24.68864-1.40288-1.9968-2.58048-4.3008-4.61824-5.74464-2.58048-1.05472-6.17472-0.74752-7.65952 1.93536-0.65536 1.90464-0.73728 4.096 0.06144 5.96992 8.46848 16.44544 24.61696 28.66176 42.72128 32.4608-0.60416 0.29696-1.82272 0.88064-2.42688 1.1776zM195.1232 589.33248c37.6832 18.52416 80.66048 25.7536 122.37824 21.62688 51.56864-4.89472 101.0176-28.12928 138.06592-64.27648 15.01184-12.32896 23.95136-30.76096 27.50464-49.60256 3.584-18.33984 0.78848-37.66272-7.03488-54.55872-6.94272-15.17568-18.51392-28.09856-32.4608-37.19168-13.1584-8.47872-28.54912-13.3632-44.15488-14.36672-9.89184 0.16384-19.9168 0.7168-29.3888 3.76832-19.57888 7.07584-39.9872 12.41088-60.83584 13.63968-25.32352 2.34496-50.87232-0.84992-75.42784-7.12704-8.98048-2.05824-17.63328-5.75488-26.95168-6.0416-9.55392-1.28-19.0976 0.52224-28.45696 2.29376-18.61632 4.11648-36.05504 14.34624-48.0768 29.22496-0.22528-1.69984-0.45056-3.42016-0.64512-5.15072 0.62464 6.49216-4.352 11.18208-7.69024 16.09728-0.90112-0.74752-1.80224-1.50528-2.70336-2.2528 0.14336 2.90816 0.96256 6.0928-0.65536 8.74496-14.25408 27.25888-12.544 61.81888 3.87072 87.7568 8.33536 15.44192 23.13216 25.52832 36.72064 35.93216 1.42336 1.0752 2.84672 2.18112 3.92192 3.61472 1.1264 1.54624 2.1504 3.14368 3.18464 4.74112 0.43008-0.53248 1.26976-1.5872 1.6896-2.11968 5.26336 3.51232 10.67008 6.79936 16.1792 9.92256 3.62496 1.8432 7.31136 3.54304 10.96704 5.3248m79.7184 12.19584c-34.1504-2.85696-67.42016-14.2848-96.49152-32.33792-9.33888-6.22592-18.72896-12.56448-26.76736-20.43904-8.62208-5.60128-15.0528-13.7728-21.07392-21.95456-9.92256-15.90272-13.824-35.31776-11.25376-53.85216 3.00032-18.30912 12.31872-35.57376 26.05056-48.05632 11.8784-10.84416 27.2896-17.50016 43.19232-19.47648 10.09664-1.55648 20.33664-0.24576 30.28992 1.4848 35.93216 11.42784 74.55744 15.1552 111.80032 8.6016 13.6704-2.41664 27.10528-6.15424 40.192-10.76224 26.92096-9.82016 58.64448-1.76128 79.12448 17.83808 24.29952 22.38464 32.1024 60.60032 18.176 90.61376-3.06176 5.66272-6.16448 11.35616-10.14784 16.44544-11.2128 13.4144-24.70912 24.77056-39.13728 34.58048-41.71776 28.60032-93.58336 42.16832-143.95392 37.31456zM654.2336 599.1936c44.31872 15.67744 93.46048 16.9984 138.68032 4.27008 16.24064-4.4544 31.70304-11.28448 46.6944-18.8928 4.6592-2.39616 8.96-5.39648 13.4656-8.06912 1.40288-1.024 3.072-0.1024 4.56704 0.2048 1.49504-2.70336 3.00032-5.5808 5.77536-7.17824 12.3392-9.34912 25.50784-18.18624 34.79552-30.84288 6.8608-9.984 12.48256-20.97152 15.24736-32.83968 5.25312-21.248 2.42688-44.43136-8.12032-63.65184-1.60768-2.73408-0.75776-6.02112-0.768-9.02144-0.89088 0.80896-1.76128 1.60768-2.63168 2.39616-2.97984-3.97312-7.07584-7.6288-7.69024-12.84096-0.09216 0.70656-0.27648 2.12992-0.37888 2.84672-13.75232-15.90272-33.36192-26.54208-54.20032-29.32736-13.08672-2.59072-26.83904-1.61792-39.48544 2.58048-16.52736 4.64896-33.42336 8.23296-50.56512 9.58464-16.26112 1.47456-32.63488 0.53248-48.78336-1.56672-15.4112-2.43712-30.55616-6.51264-45.18912-11.8784-9.65632-3.2256-19.9168-3.84-30.02368-4.00384-17.54112 1.14688-34.87744 7.07584-48.97792 17.67424-14.31552 10.63936-25.53856 25.53856-31.20128 42.50624-5.89824 16.49664-6.59456 34.68288-2.36544 51.65056 4.29056 16.4864 12.4928 32.49152 25.83552 43.44832 24.18688 23.53152 53.4016 41.90208 85.31968 52.95104m57.68192 2.51904c-49.33632-3.96288-97.03424-25.28256-132.94592-59.32032-8.704-8.02816-16.16896-17.3568-21.44256-27.98592-13.80352-28.11904-8.0896-64.1536 12.97408-87.18336 20.4288-23.07072 55.23456-33.19808 84.39808-22.25152 24.44288 8.73472 50.26816 13.74208 76.26752 13.74208 22.4768 0.256 44.86144-3.42016 66.52928-9.24672 17.52064-6.01088 37.0688-6.4 54.6816-0.43008 30.0544 9.56416 51.77344 39.00416 54.00576 70.17472 0.95232 16.77312-3.2256 33.8944-12.26752 48.09728-5.45792 7.13728-10.9568 14.49984-18.39104 19.73248-4.4032 3.00032-7.72096 7.30112-12.19584 10.22976-42.57792 33.16736-97.91488 49.09056-151.61344 44.4416zM452.29056 200.99072c2.93888 2.83648 8.64256 1.8432 9.79968-2.33472 1.1264-4.64896-3.69664-7.3728-6.144-10.5472-11.39712-12.84096-9.0624-34.65216 4.42368-45.12768 12.6464-10.89536 33.59744-9.22624 44.35968 3.52256 2.10944 2.23232 3.66592 6.10304 7.30112 5.82656 4.36224 0.77824 6.20544-3.77856 8.67328-6.37952 10.3936-11.63264 29.53216-13.64992 42.0864-4.34176 14.46912 9.60512 18.06336 31.73376 7.18848 45.312-2.75456 3.7888-8.00768 6.63552-7.34208 11.99104 1.8432 3.69664 6.88128 4.9664 10.00448 2.08896 5.96992-5.2736 10.99776-11.95008 13.18912-19.712 4.38272-13.01504 1.8944-27.97568-6.13376-39.05536-5.84704-8.192-14.65344-14.16192-24.3712-16.73216-14.9504-4.00384-31.85664 0.65536-42.53696 11.88864-2.65216-1.6896-4.83328-4.00384-7.4752-5.72416-11.12064-7.70048-25.93792-9.6256-38.7072-5.25312-9.70752 3.29728-18.11456 10.15808-23.40864 18.92352-6.20544 10.47552-8.01792 23.57248-4.29056 35.2256 2.05824 8.07936 7.23968 14.97088 13.38368 20.4288zM640.94208 568.3712c18.56512 2.18112 37.85728-2.78528 53.0944-13.6192 14.27456-9.97376 24.86272-25.0368 29.57312-41.78944 4.18816-14.592 3.87072-30.40256-0.89088-44.82048-4.9664-15.11424-14.66368-28.672-27.55584-38.02112-15.54432-11.4688-35.56352-16.82432-54.74304-14.30528-17.84832 2.08896-34.80576 10.79296-47.0016 23.98208-10.86464 11.69408-17.96096 26.86976-19.89632 42.73152-2.75456 20.48 3.54304 41.90208 16.56832 57.89696 12.45184 15.48288 31.13984 25.6512 50.85184 27.94496zM206.86848 566.29248c19.03616 2.29376 38.78912-3.072 54.19008-14.44864 15.96416-11.63264 27.0848-29.71648 30.22848-49.21344 2.84672-16.29184 0.02048-33.46432-7.6288-48.10752-7.28064-14.09024-19.07712-25.8048-33.23904-32.94208-14.51008-7.48544-31.46752-10.10688-47.5648-7.31136-19.98848 3.20512-38.44096 14.83776-50.04288 31.42656-10.92608 15.4624-15.96416 35.06176-13.47584 53.85216 2.18112 17.5104 10.5984 34.17088 23.45984 46.25408 11.96032 11.33568 27.67872 18.67776 44.07296 20.49024z"  horiz-adv-x="1024" />

    
    <glyph glyph-name="zhichi" unicode="&#58981;" d="M184.298 305.696c1.195 0 2.512-0.07 3.79-0.149 37.54-17.65 80.639-22.37 121.733-13.006 0.32 0 0.555 0 0.838-0.071 91.689 21.852 149.542 106.095 130.515 193.506-35.995 27.126-63.446 63.692-78.089 105.647-116.626 69.535-272.233-8.215-272.233-138.948 0-53.402 27.327-100.857 69.542-130.924-0.754-0.149-1.553-0.22-2.428-0.368a181.616 181.616 0 0 1 26.332-15.687zM911.071 590.844c-12.97-37.086-39.506-77.147-76.127-104.834-0.639-2.714-1.08-5.5-1.558-8.214-0.717-0.744-1.28-1.34-1.995-2.042-5.304-33.371 0.555-66.372 15.6-95.434 1.12-0.666 2.232-1.376 3.395-1.971 16.834-31.101 43.89-56.37 77.122-72.277 0.236-0.376 0.48-0.674 0.8-1.007v0.597c116.984-55.295 256.914 23.743 256.914 147.05 0 123.933-141.284 202.945-258.474 146.269v0.263c-5.38-2.568-10.57-5.317-15.677-8.4zM889.526 288.16c-62.367 98.028-199.183 83.987-199.183 83.987H573.395s-108.926 3.68-171.368-79.79c-0.959-1.524-2.032-2.9-3.112-4.424-0.914-0.744-1.751-1.375-2.634-2.041-2.351-3.417-4.664-7.095-7.015-11.114 0.432-0.149 0.835-0.298 1.155-0.369-5.03-8.697-9.901-18.357-14.649-28.798a7.439 7.439 0 0 0-1.27 0.297c-44.17-96.774-84.072-290.385-83.873-307.964h1.796c0.357-19.031 8.66-58.788 72.58-57.415H920.05s81.787-1.82 81.787 67.146c0.047 0-38.378 253.372-112.311 340.485zM391.777 668.812c0-29.592 6.316-59.17 18.477-86.509 12.153-27.34 30.145-52.417 52.61-73.34 22.465-20.926 49.391-37.682 78.743-49 29.344-11.327 61.11-17.212 92.876-17.212 31.772 0 63.53 5.885 92.884 17.211 29.352 11.32 56.276 28.075 78.743 49 22.465 20.924 40.447 46.001 52.61 73.341 12.161 27.338 18.477 56.917 18.477 86.51 0 29.586-6.316 59.165-18.477 86.503-12.163 27.34-30.145 52.417-52.61 73.34-22.467 20.924-49.391 37.681-78.743 49-29.354 11.327-61.112 17.21-92.884 17.21-31.766 0-63.532-5.883-92.876-17.21-29.352-11.319-56.278-28.076-78.743-49-22.465-20.923-40.457-46-52.61-73.34-12.161-27.338-18.477-56.917-18.477-86.504zM1194.12 175.297c-45.449 71.426-145.16 61.24-145.16 61.24h-83.226c55.221-107.767 83.79-296.07 83.79-296.07 0-39.537-26.971-55.811-50-62.433h216.94s59.648-1.295 59.648 48.91c0 0.034-28.005 184.843-81.993 248.353zM226.55-59.532s28.568 188.267 83.789 296.07h-83.234c-39.3 3.905-112.594-7.912-147.068-62.134C34.353 120.634 7.185-20.548 0-62.056h1.796C0.64-69.044 0-73.022 0-73.022c0-50.24 59.573-48.9 59.573-48.9H276.54c-22.936 6.578-49.991 22.852-49.991 62.39z"  horiz-adv-x="1280" />

    
    <glyph glyph-name="zhichi1" unicode="&#58908;" d="M804.124444 485.063111c-141.283556 0-255.772444-114.403556-255.772444-255.601778a254.577778 254.577778 0 0 1 95.288889-198.826666c-75.121778-55.296-131.84-90.112-131.84-90.112S0.170667 253.923556 0.170667 506.339556c0 152.120889 94.435556 304.213333 274.062222 304.213333 164.465778 0 237.568-155.591111 237.568-155.591111s63.943111 155.591111 237.482667 155.591111c173.624889 0 271.075556-149.048889 271.075555-304.213333 0-34.702222-10.012444-70.371556-26.225778-106.183112a254.862222 254.862222 0 0 1-190.008889 84.906667z m0-36.522667c121.116444 0 219.306667-98.048 219.306667-219.079111 0-120.888889-98.190222-218.965333-219.306667-218.965333-121.144889 0-219.249778 98.048-219.249777 218.965333a219.107556 219.107556 0 0 0 219.221333 219.079111z m-109.653333-255.516444h73.102222v-73.016889h73.102223v73.016889h73.102222v73.102222h-73.102222v72.903111h-73.102223v-72.931555h-73.102222v-73.102222z"  horiz-adv-x="1024" />

    
    <glyph glyph-name="biaoqing" unicode="&#58978;" d="M512 896c282.781538 0 512-229.218462 512-512s-229.218462-512-512-512S0 101.218462 0 384 229.218462 896 512 896z m0-52.302769C258.126769 843.697231 52.302769 637.873231 52.302769 384c0-253.873231 205.824-459.697231 459.697231-459.697231 253.873231 0 459.697231 205.824 459.697231 459.697231 0 253.873231-205.824 459.697231-459.697231 459.697231zM322.953846 450.953846h90.584616a27.569231 27.569231 0 0 1 0 55.138462H322.953846a27.569231 27.569231 0 1 1 0-55.138462zM598.646154 450.953846h90.584615a27.569231 27.569231 0 0 1 0 55.138462h-90.584615a27.569231 27.569231 0 0 1 0-55.138462zM320.512 276.598154c35.052308-102.360615 100.036923-156.475077 191.488-156.475077 92.356923 0 152.733538 54.429538 176.521846 156.199385a27.569231 27.569231 0 0 1-53.720615 12.563692C616.566154 210.786462 577.181538 175.261538 512 175.261538c-66.087385 0-111.419077 37.809231-139.342769 119.217231a27.569231 27.569231 0 1 1-52.145231-17.880615z"  horiz-adv-x="1024" />

    
    <glyph glyph-name="zan" unicode="&#58907;" d="M921.940308 561.49161H694.271544c-16.895958 2.815993-22.527944 19.711951-25.343936 28.159929V794.79236A100.693082 100.693082 0 0 1 567.722527 895.99744c-50.517207 0-92.671768-39.338568-101.119747-87.125116-30.975923-193.962182-148.991628-258.559354-224.852771-278.185971a54.869196 54.869196 0 0 0 2.815993-19.71195v-545.278637a74.837146 74.837146 0 0 0-8.533312-33.791916h550.995956c53.3332 11.263972 89.941108 30.975923 115.199712 84.309123l115.199712 404.734988c22.527944 73.130484-13.994632 143.359642-95.573095 140.543649z m-725.160853-598.611837V510.974403c0 16.810625-22.527944 30.890589-47.786547 30.890589h-75.946477A74.410481 74.410481 0 0 1 0.00128 468.734508v-460.884181c0-42.154561 30.890589-75.946477 73.045151-75.946477h75.946477c25.258604 0 47.786547 14.079965 47.786547 30.975923z"  horiz-adv-x="1024" />

    
    <glyph glyph-name="no-zan-p" unicode="&#59121;" d="M382.820649 268.003534c24.556355-32.569481 63.071059-51.568345 103.78291-51.309857h217.000631V-5.218225c0.129244-67.723842 55.057933-122.652531 122.781775-122.781775 60.873911 0 112.442257 40.711852 122.652531 96.803736C977.859902 124.542724 1051.65821 220.958728 1124.422567 253.528209v642.342547H621.792755c-69.662502 0-130.794901-46.657074-149.276789-113.86394l-110.762085-401.302537c-11.244226-38.773192-3.360343-80.518995 21.066768-112.700745zM1406.949893 368.296857V795.835921c-2.972611 55.833396-49.241954 100.164079-105.72157 100.164079h-113.088477v-629.935126h113.476209c55.187177-0.129244 102.361227 46.140098 105.333838 102.231983z"  horiz-adv-x="1765" />

    
    <glyph glyph-name="microblog" unicode="&#59052;" d="M433.783 426.198c-134.621-6.21-243.457-78.341-243.457-168.289 0-89.816 108.836-157.359 243.457-151.072 134.73 6.163 243.794 90.473 243.794 180.321 0 89.713-109.070 145.249-243.794 139.039v0zM525.511 199.933c-41.236-53.202-122.812-79.174-202.017-36.272-37.699 20.441-36.323 60.619-36.323 60.619s-15.649 126.829 119.758 142.685c135.612 15.727 159.813-113.775 118.582-167.032v0zM434.699 284.879c-8.673-6.293-10.444-18.295-5.74-25.791 4.537-7.679 15.071-8.57 23.613-2.172 8.392 6.632 11.637 18.134 7.106 25.812-4.537 7.468-14.939 9.619-24.979 2.15v0zM370.512 267.422c-25.302-2.62-43.388-24.634-43.388-45.731 0-21.128 20.364-35.724 45.644-32.766 25.187 2.886 45.685 22.331 45.685 43.403-0 21.149-18.9 37.876-47.94 35.094v0zM844.505 862.055h-665.004c-80.399 0-145.565-65.155-145.565-145.565v-664.977c0-80.408 65.166-145.565 145.565-145.565h665.004c80.399 0 145.555 65.155 145.555 145.565v664.977c0 80.408-65.157 145.565-145.555 145.565v0zM797.92 227.504c-55.536-117.883-238.555-175.257-374.176-164.642-128.897 10.143-294.616 52.994-311.743 208.967 0 0-9.059 70.631 59.442 162.046 0 0 98.505 137.574 213.223 176.837 114.847 39.048 128.239-27.046 128.239-66.126-6.089-33.156-17.534-52.655 25.566-39.262 0 0 112.914 52.338 159.338 5.923 37.506-37.506 6.189-89.113 6.189-89.113s-15.519-17.191 16.47-23.38c32.079-6.416 132.918-53.148 77.451-171.251v0zM686.61 553.234c-12.294 0-22.16 9.934-22.16 22.151 0 12.392 9.866 22.352 22.16 22.352 0 0 138.397 25.556 121.832-123.129 0-0.864-0.109-1.546-0.302-2.334-1.568-10.532-10.826-18.633-21.727-18.633-12.33 0-22.353 9.855-22.353 22.176-0.005-0.006 21.92 99.352-77.449 77.417v0zM920.512 434.324h-0.166c-3.646-25.133-16.132-27.155-31.019-27.155-17.784 0-32.198 11.168-32.198 28.988 0 15.41 6.391 31.084 6.391 31.084 1.916 6.501 16.956 46.861-9.934 107.194-49.18 82.664-148.3 83.867-159.99 79.128-11.808-4.59-29.24-6.944-29.24-6.944-17.899 0-32.25 14.569-32.25 32.287 0 14.861 9.934 27.442 23.483 31.296 0 0 0.303 0.494 0.797 0.599 0.973 0.214 1.969 1.183 3.042 1.261 13.814 2.673 63.005 12.319 110.825 1.125 85.603-20 203.096-102.741 150.259-278.864v0z"  horiz-adv-x="1024" />

    
    <glyph glyph-name="CSDN" unicode="&#58892;" d="M514.56 886.272c-277.504 0-503.808-226.304-503.808-503.808s226.304-502.272 503.808-502.272S1018.88 106.496 1018.88 384 792.064 886.272 514.56 886.272z m0-974.336c-259.072 0-469.504 211.968-469.504 471.04S257.024 855.04 516.096 855.04s469.504-211.968 469.504-471.04-211.456-472.064-471.04-472.064zM771.584 83.456l13.824 135.168c-39.936-11.776-125.952-19.968-184.832-19.968-167.936 0-257.024 58.88-244.224 182.784 14.336 138.24 141.312 182.272 290.816 182.272 68.608 0 153.088-11.264 188.928-23.04l17.408 141.824c-54.272 13.312-112.128 20.992-210.432 20.992-253.952 0-485.888-118.784-507.904-329.216-18.432-176.64 138.24-310.784 428.032-310.784 101.376 0 173.568 8.192 208.384 19.968z m0 0"  horiz-adv-x="1024" />

    
    <glyph glyph-name="bilibili" unicode="&#58882;" d="M387.5 654.3l-74.9 72.6s-11.7 14.4 8.1 30.7c19.9 16.2 20.9 9 27.6 4.5 6.7-4.5 111.4-107.8 111.4-107.8h-72.2z m248.8-2.7l74.9 72.6s11.7 14.4-8.1 30.7c-19.8 16.2-20.9 9-27.6 4.5-6.7-4.5-111.4-107.8-111.4-107.8h72.2zM917.4 517.2c-2.7 113.7-101.5 135.3-101.5 135.3s-506.2 4.1-611.8 0c-105.6-29.8-97.5-135.3-97.5-135.3s1.4-226-0.1-340.4c11.4-114.4 99.6-132.6 99.6-132.6s35.2-0.7 60.9-0.7c2.7-7.4 4.7-43.3 44.7-43.3 39.9 0 44.7 43.3 44.7 43.3s292.4 1.4 316.7 1.4c1.4-12.2 7.4-45.3 47.4-44.7 39.9 0.7 42.6 47.4 42.6 47.4s13.5 1.4 54.1 0c94.7 17.6 100.2 128.6 100.2 128.6s-1.3 227.3 0 341z m-81.5-361.9c0-17.9-14.2-32.5-31.7-32.5H227.9c-17.5 0-31.7 14.5-31.7 32.5V537c0 17.9 14.2 32.5 31.7 32.5h576.3c17.5 0 31.7-14.5 31.7-32.5v-381.7zM256.9 429.2l169.2 32.5 12.8-63.6-167.8-32.5z m526.5 0l-169.2 32.5-12.9-63.6 167.9-32.5zM438.9 271.5s37.2-67 78.5 21.7c39.9-86.6 83.9-23 83.9-23l25-16.3s-46.7-75.1-108.3-18.3c-52.1-56.8-106.9 18.1-106.9 18.1l27.8 17.8z"  horiz-adv-x="1024" />

    
    <glyph glyph-name="xingjizhengba" unicode="&#58904;" d="M447.54248363 326.64323186c-15.87323563-8.85828949-74.19596117-4.30390272-95.48574834-4.30390272-37.28203776 0-49.95433245 13.40990919-73.82646102 25.95903715-26.94852039-40.23249465-67.7982299-55.73484771-73.70467896-78.13451662 40.97564445 0 267.38029909-3.07362361 297.2778917 2.34016086 40.97564445 7.2598949 54.26238691 21.41018567 54.26238691 62.87849585 0 30.76252445-173.36977977 208.56490894-173.36977977 208.56490895-22.27235043 11.19014685-93.76003527 4.05480221-126.12233898 4.0548022 3.32133945-12.42319417 79.98062706-95.35427811 94.37725126-109.6332709l74.31912676-81.94990535c10.21450354-12.54636089 17.9656795-13.65762503 22.27235044-29.77580942zM551.76058766 452.51923741c0-60.41516942 13.29089422-94.99031552 54.63465415-136.33684253 45.52449593-45.52449593 80.59369131-54.62911886 145.07058176-54.62911773 43.18987037 0 78.13313195 13.28951069 95.48298013 39.00498262-60.53971854 0-95.85386382 3.32272413-131.04207303 29.65679559-94.99446613 70.99501909-41.46831019 179.27899705-38.27013632 217.78854685h-104.2167205c-9.72598955-20.42623886-21.65928619-65.0899547-21.65928619-95.4843648zM586.46028402 734.66704441v-125.87739022c58.07777565 38.88320057 12.05923043 30.39164189 138.91918393 30.39164188 15.99640235 30.26709163 32.72903453 74.19734471 86.87102293 86.87240647v8.61334187c-34.33158087 0.73484629-96.59147719 26.08358741-134.61528121 26.08358741-14.39247246-0.00138354-71.23996899-21.40741859-91.17492565-26.08358741zM586.46028402 79.20065763000002c21.53335239 5.04705251 62.50622862 33.84029981 78.74896441 47.12289053 67.92139662 55.49958599 60.17021952 57.34292935 60.17021952 104.8436224 0 26.08358741-36.66758997 0.36396373-107.78716046 48.47633635-14.27484103 9.72045426-18.70606222 16.98173269-31.13202347 25.34735759v-225.79020687zM386.75643165 196.46609066999997c0-31.13479168 110.86631822-119.35787691 138.91918506-125.87462315V252.81953792000002H386.75643165v-56.35344725zM300.00995897 730.35760526c8.85967417-12.17962894 11.56656583-7.75394418 27.43980146-15.99225059 62.7539456-32.11597141 45.2809307-70.8773888 68.04317866-70.8773888h130.18267762c0 106.43509817 7.87434269 86.00885931-38.51231801 100.40548238-72.59895011 22.5172992-83.79324871 10.58123435-187.15333973-13.53584299zM239.22390699 569.7832869h186.65929045c36.66897351 0 40.11486435-7.99889294 60.78605198-21.78106937l73.82646215 69.52532764H286.96539705c-33.96069831-2.95876039-47.74149006-18.33794674-47.74149006-47.74425827zM586.46028402 569.7832869h130.18267648c62.62939534 0 65.82895275 6.89039587 108.52477497-21.78106937l73.82922922 69.52532764c-27.0689189 0-251.62746197 3.44450617-266.88763448-2.21699413-14.51702272-5.53971826-37.77193529-33.83891627-45.64904619-45.52726414zM681.94326414 461.26128014c0-45.03736661 7.99612473-80.47606101 43.43620381-104.22225465v190.96319204c-17.10489941 0-19.56545877 9.23055673-32.72903453-32.35815083-5.415168-16.73124864-10.70716928-35.18959389-10.70716928-54.38278656zM517.06227485 435.17492451v121.56656868c-19.81179107-13.28674247-13.04317725-21.78106937-39.12814934-21.78106937-25.59230635 0 3.32272413 21.78106937-65.08995356 21.78106937l104.2181029-121.56656868zM412.84417195 339.68779264l-33.71436601 35.68087609c-0.98533035-39.25131605-4.55577145-35.68087495 33.71436601-35.68087609z"  horiz-adv-x="1024" />

    
    <glyph glyph-name="CN_csdnnet" unicode="&#58881;" d="M1141.350889 856.943904l-28.912998-218.474979c-126.144988 19.927998-251.600975 38.376996-377.754963 27.674997-115.459989-9.802999-227.405978-32.180997-309.12497-122.987988C275.539973 376.459951 357.166965 146.694973 583.810943 105.692977c141.114986-25.525998 283.919972-11.784999 425.447958 8.122999-5.451999-112.439989-5.764999-95.302991-10.674999-205.22998-1.074-24.056998 4.277-14.611999-161.648984-31.913996-176.003983-9.003999-351.879966-11.188999-520.549949 52.887994-159.839984 60.717994-285.709972 157.279985-311.20797 335.624968C-21.074998 448.779944 53.979995 596.979929 197.693981 711.312918 413.36896 882.901901 790.802923 943.269895 1141.349889 856.943904z"  horiz-adv-x="1141" />

    
    <glyph glyph-name="Bilibili" unicode="&#58906;" d="M896.436379 730.302453h-62.339862l54.569967 54.569966c23.430151 23.369919 23.430151 70.16999 0 93.53991-23.369919 23.369919-70.16999 23.369919-93.53991 0l-155.879772-148.170108H452.166984L296.22698 878.47256c-23.430151 23.369919-70.16999 23.369919-93.539909 0-23.369919-23.430151-23.430151-70.16999 0-93.539909l54.569966-54.569966H194.917175A192.98253 192.98253 0 0 1 0.007228 535.392506v-420.899476c0-116.970061 85.709782-202.679842 194.909947-202.679843h693.749309a192.98253 192.98253 0 0 1 194.849714 194.849715V535.392506c7.830128 109.139933-77.939886 194.909946-187.079819 194.909947z m54.630199-615.809423a69.868831 69.868831 0 0 0-70.16999-70.16999H202.626839A69.868831 69.868831 0 0 0 132.517081 114.49303V527.62261A69.868831 69.868831 0 0 0 202.687071 597.7926h678.209517a69.868831 69.868831 0 0 0 70.16999-70.16999v-413.189812zM343.027051 457.45262a69.868831 69.868831 0 0 1-70.230222-70.16999V317.11264a69.868831 69.868831 0 0 1 70.16999-70.16999A69.868831 69.868831 0 0 1 413.197041 317.11264V387.28263A69.868831 69.868831 0 0 1 342.966819 457.45262z m405.359684 0a69.868831 69.868831 0 0 1-70.230221-70.16999V317.11264a69.868831 69.868831 0 0 1 70.16999-70.16999A69.868831 69.868831 0 0 1 818.556725 317.11264V387.28263a69.868831 69.868831 0 0 1-70.16999 70.16999z"  horiz-adv-x="1084" />

    
    <glyph glyph-name="left" unicode="&#59152;" d="M184.817 379.851l378.502-378.519-70.077-70.08L44.652 379.851 493.241 828.443l70.082-70.087L184.817 379.851 184.817 379.851zM597.583 386.884l378.504-378.517-70.085-70.08L457.414 386.884 906.003 835.475l70.085-70.09L597.583 386.889 597.583 386.884z"  horiz-adv-x="1024" />

    
    <glyph glyph-name="left1" unicode="&#58903;" d="M415.890286 378.806857l362.057143-362.057143a73.142857 73.142857 0 0 0-103.424-103.424L260.754286 327.094857a73.142857 73.142857 0 0 0 0 103.424L674.523429 844.288a73.142857 73.142857 0 1 0 103.424-103.424l-362.057143-362.057143z"  horiz-adv-x="1024" />

    
    <glyph glyph-name="right" unicode="&#58880;" d="M316.243449 896L193.363367 773.118895l389.119918-389.121964-389.119918-389.114802 122.881105-122.882128 511.996931 511.995907L316.243449 896zM316.243449 896"  horiz-adv-x="1024" />

    
    </font>
</defs>
</svg>
